<svg width="20" height="20" viewBox="0 0 20 20" fill="none" xmlns="http://www.w3.org/2000/svg">
<path d="M19.4312 8.19737C19.5479 8.86857 19.606 9.54862 19.605 10.2299C19.605 13.2724 18.5175 15.8449 16.625 17.5861H16.6275C14.9725 19.1149 12.6975 19.9999 10 19.9999C7.34783 19.9999 4.8043 18.9463 2.92893 17.0709C1.05357 15.1956 0 12.652 0 9.99987C0 7.3477 1.05357 4.80416 2.92893 2.9288C4.8043 1.05344 7.34783 -0.000133599 10 -0.000133599C12.4824 -0.0292065 14.8798 0.903407 16.69 2.60237L13.835 5.45737C12.803 4.47359 11.4256 3.93486 10 3.95737C7.39125 3.95737 5.175 5.71737 4.385 8.08737C3.96613 9.32925 3.96613 10.6742 4.385 11.9161H4.38875C5.1825 14.2824 7.395 16.0424 10.0037 16.0424C11.3512 16.0424 12.5087 15.6974 13.4062 15.0874H13.4025C13.9236 14.7421 14.3694 14.2949 14.7129 13.7726C15.0565 13.2503 15.2906 12.6639 15.4012 12.0486H10V8.19862H19.4312V8.19737Z" fill="#101214"/>
</svg>
