<svg width="40" height="40" viewBox="0 0 40 40" fill="none" xmlns="http://www.w3.org/2000/svg">
<path d="M14.4531 23.8832C14.4531 26.0332 16.1031 27.7665 18.1531 27.7665H22.3365C24.1198 27.7665 25.5698 26.2498 25.5698 24.3832C25.5698 22.3498 24.6865 21.6332 23.3698 21.1665L16.6531 18.8332C15.3365 18.3665 14.4531 17.6498 14.4531 15.6165C14.4531 13.7498 15.9031 12.2332 17.6865 12.2332H21.8698C23.9198 12.2332 25.5698 13.9665 25.5698 16.1165" stroke="#101214" stroke-width="2.5" stroke-linecap="round" stroke-linejoin="round"/>
<path d="M20 10V30" stroke="#101214" stroke-width="2.5" stroke-linecap="round" stroke-linejoin="round"/>
<path d="M20.0006 36.6666C29.2054 36.6666 36.6673 29.2047 36.6673 19.9999C36.6673 10.7952 29.2054 3.33325 20.0006 3.33325C10.7959 3.33325 3.33398 10.7952 3.33398 19.9999C3.33398 29.2047 10.7959 36.6666 20.0006 36.6666Z" stroke="#101214" stroke-width="2.5" stroke-linecap="round" stroke-linejoin="round"/>
</svg>
