<svg width="16" height="16" viewBox="0 0 16 16" fill="none" xmlns="http://www.w3.org/2000/svg">
<path d="M11.334 1.62012H4.66732C2.66732 1.62012 1.33398 2.95345 1.33398 4.95345V8.95345C1.33398 10.9535 2.66732 12.2868 4.66732 12.2868V13.7068C4.66732 14.2401 5.26065 14.5601 5.70065 14.2601L8.66732 12.2868H11.334C13.334 12.2868 14.6673 10.9535 14.6673 8.95345V4.95345C14.6673 2.95345 13.334 1.62012 11.334 1.62012ZM8.00065 9.73345C7.72065 9.73345 7.50065 9.50678 7.50065 9.23345C7.50065 8.96012 7.72065 8.73345 8.00065 8.73345C8.28065 8.73345 8.50065 8.96012 8.50065 9.23345C8.50065 9.50678 8.28065 9.73345 8.00065 9.73345ZM8.84065 6.96678C8.58065 7.14012 8.50065 7.25345 8.50065 7.44012V7.58012C8.50065 7.85345 8.27398 8.08012 8.00065 8.08012C7.72732 8.08012 7.50065 7.85345 7.50065 7.58012V7.44012C7.50065 6.66678 8.06732 6.28678 8.28065 6.14012C8.52732 5.97345 8.60732 5.86012 8.60732 5.68678C8.60732 5.35345 8.33398 5.08012 8.00065 5.08012C7.66732 5.08012 7.39398 5.35345 7.39398 5.68678C7.39398 5.96012 7.16732 6.18678 6.89398 6.18678C6.62065 6.18678 6.39398 5.96012 6.39398 5.68678C6.39398 4.80012 7.11398 4.08012 8.00065 4.08012C8.88732 4.08012 9.60732 4.80012 9.60732 5.68678C9.60732 6.44678 9.04732 6.82678 8.84065 6.96678Z" fill="#6C757D"/>
</svg>
