<svg width="41" height="40" viewBox="0 0 41 40" fill="none" xmlns="http://www.w3.org/2000/svg">
<path d="M33.8327 13.7499V29.9999C33.8327 34.9999 30.8493 36.6666 27.166 36.6666H13.8327C10.1493 36.6666 7.16602 34.9999 7.16602 29.9999V13.7499C7.16602 8.33325 10.1493 7.08325 13.8327 7.08325C13.8327 8.11659 14.2493 9.04991 14.9326 9.73325C15.616 10.4166 16.5493 10.8333 17.5827 10.8333H23.416C25.4827 10.8333 27.166 9.14992 27.166 7.08325C30.8493 7.08325 33.8327 8.33325 33.8327 13.7499Z" stroke="#101214" stroke-width="2.5" stroke-linecap="round" stroke-linejoin="round"/>
<path d="M27.1673 7.08325C27.1673 9.14992 25.484 10.8333 23.4173 10.8333H17.584C16.5507 10.8333 15.6173 10.4166 14.9339 9.73325C14.2506 9.04991 13.834 8.11659 13.834 7.08325C13.834 5.01659 15.5173 3.33325 17.584 3.33325H23.4173C24.4507 3.33325 25.384 3.74992 26.0674 4.43326C26.7507 5.11659 27.1673 6.04992 27.1673 7.08325Z" stroke="#101214" stroke-width="2.5" stroke-linecap="round" stroke-linejoin="round"/>
<path d="M13.834 21.6667H20.5007" stroke="#101214" stroke-width="2.5" stroke-linecap="round" stroke-linejoin="round"/>
<path d="M13.834 28.3333H27.1673" stroke="#101214" stroke-width="2.5" stroke-linecap="round" stroke-linejoin="round"/>
</svg>
