<svg width="20" height="20" viewBox="0 0 20 20" fill="none" xmlns="http://www.w3.org/2000/svg">
<path d="M5.83331 10.4167C6.32777 10.4167 6.81112 10.27 7.22224 9.99534C7.63336 9.72064 7.95379 9.33019 8.14301 8.87337C8.33223 8.41656 8.38174 7.91389 8.28528 7.42894C8.18881 6.94399 7.95071 6.49853 7.60108 6.1489C7.25145 5.79927 6.80599 5.56117 6.32104 5.4647C5.83609 5.36824 5.33342 5.41775 4.8766 5.60697C4.41979 5.79619 4.02934 6.11662 3.75464 6.52774C3.47994 6.93886 3.33331 7.42221 3.33331 7.91667C3.33331 8.57971 3.59671 9.21559 4.06555 9.68443C4.53439 10.1533 5.17027 10.4167 5.83331 10.4167ZM5.83331 7.08333C5.99813 7.08333 6.15925 7.13221 6.29629 7.22378C6.43333 7.31534 6.54014 7.44549 6.60321 7.59776C6.66629 7.75004 6.68279 7.91759 6.65063 8.07924C6.61848 8.24089 6.53911 8.38938 6.42257 8.50592C6.30603 8.62247 6.15754 8.70183 5.99589 8.73399C5.83424 8.76614 5.66668 8.74964 5.51441 8.68657C5.36214 8.62349 5.23199 8.51668 5.14042 8.37964C5.04885 8.2426 4.99998 8.08148 4.99998 7.91667C4.99998 7.69565 5.08778 7.48369 5.24406 7.32741C5.40034 7.17113 5.6123 7.08333 5.83331 7.08333ZM16.6666 5.41667H9.99998C9.77897 5.41667 9.56701 5.50446 9.41072 5.66074C9.25444 5.81702 9.16665 6.02899 9.16665 6.25V11.25H2.49998V4.58333C2.49998 4.36232 2.41218 4.15036 2.2559 3.99408C2.09962 3.8378 1.88766 3.75 1.66665 3.75C1.44563 3.75 1.23367 3.8378 1.07739 3.99408C0.92111 4.15036 0.833313 4.36232 0.833313 4.58333V15.4167C0.833313 15.6377 0.92111 15.8496 1.07739 16.0059C1.23367 16.1622 1.44563 16.25 1.66665 16.25C1.88766 16.25 2.09962 16.1622 2.2559 16.0059C2.41218 15.8496 2.49998 15.6377 2.49998 15.4167V12.9167H17.5V15.4167C17.5 15.6377 17.5878 15.8496 17.7441 16.0059C17.9003 16.1622 18.1123 16.25 18.3333 16.25C18.5543 16.25 18.7663 16.1622 18.9226 16.0059C19.0788 15.8496 19.1666 15.6377 19.1666 15.4167V7.91667C19.1666 7.25363 18.9033 6.61774 18.4344 6.1489C17.9656 5.68006 17.3297 5.41667 16.6666 5.41667ZM17.5 11.25H10.8333V7.08333H16.6666C16.8877 7.08333 17.0996 7.17113 17.2559 7.32741C17.4122 7.48369 17.5 7.69565 17.5 7.91667V11.25Z" fill="#5D5FEF"/>
</svg>
