<svg width="64" height="64" viewBox="0 0 64 64" fill="none" xmlns="http://www.w3.org/2000/svg">
<rect width="64" height="64" fill="#DEE2E6"/>
<path d="M26.4529 35.8828C26.4529 38.0327 28.1029 39.7661 30.1529 39.7661H34.3362C36.1195 39.7661 37.5695 38.2494 37.5695 36.3828C37.5695 34.3495 36.6862 33.6328 35.3695 33.1661L28.6529 30.8328C27.3363 30.3662 26.4529 29.6495 26.4529 27.6162C26.4529 25.7496 27.9029 24.2329 29.6862 24.2329H33.8695C35.9195 24.2329 37.5695 25.9662 37.5695 28.1162" stroke="#101214" stroke-width="2.49997" stroke-linecap="round" stroke-linejoin="round"/>
<path d="M31.9998 22V41.9998" stroke="#101214" stroke-width="2.49997" stroke-linecap="round" stroke-linejoin="round"/>
<path d="M31.9998 48.6664C41.2044 48.6664 48.6662 41.2046 48.6662 32C48.6662 22.7953 41.2044 15.3335 31.9998 15.3335C22.7951 15.3335 15.3333 22.7953 15.3333 32C15.3333 41.2046 22.7951 48.6664 31.9998 48.6664Z" stroke="#101214" stroke-width="2.49997" stroke-linecap="round" stroke-linejoin="round"/>
</svg>
