<svg width="20" height="20" viewBox="0 0 20 20" fill="none" xmlns="http://www.w3.org/2000/svg">
<path d="M2.08331 8.79998L9.58331 13.1333C9.70999 13.2064 9.8537 13.245 9.99998 13.245C10.1463 13.245 10.29 13.2064 10.4166 13.1333L17.9166 8.79998C18.0429 8.72672 18.1478 8.62158 18.2206 8.49507C18.2935 8.36856 18.3318 8.22513 18.3318 8.07914C18.3318 7.93315 18.2935 7.78972 18.2206 7.66321C18.1478 7.53671 18.0429 7.43156 17.9166 7.35831L10.4166 3.02498C10.29 2.95184 10.1463 2.91333 9.99998 2.91333C9.8537 2.91333 9.70999 2.95184 9.58331 3.02498L2.08331 7.35831C1.95703 7.43156 1.85221 7.53671 1.77934 7.66321C1.70647 7.78972 1.66812 7.93315 1.66812 8.07914C1.66812 8.22513 1.70647 8.36856 1.77934 8.49507C1.85221 8.62158 1.95703 8.72672 2.08331 8.79998ZM9.99998 4.70831L15.8333 8.04164L9.99998 11.4166L4.16664 8.07498L9.99998 4.70831ZM17.0833 11.2L9.99998 15.2916L2.91664 11.2C2.82203 11.1445 2.7174 11.1083 2.60876 11.0934C2.50012 11.0785 2.3896 11.0851 2.28354 11.113C2.17747 11.1409 2.07796 11.1894 1.99069 11.2558C1.90342 11.3222 1.83011 11.4052 1.77498 11.5C1.71988 11.5951 1.68414 11.7002 1.66982 11.8091C1.6555 11.9181 1.66288 12.0289 1.69154 12.135C1.7202 12.2411 1.76957 12.3405 1.83681 12.4275C1.90405 12.5144 1.98782 12.5872 2.08331 12.6416L9.58331 16.975C9.70999 17.0481 9.8537 17.0866 9.99998 17.0866C10.1463 17.0866 10.29 17.0481 10.4166 16.975L17.9166 12.6416C18.0121 12.5872 18.0959 12.5144 18.1631 12.4275C18.2304 12.3405 18.2798 12.2411 18.3084 12.135C18.3371 12.0289 18.3445 11.9181 18.3301 11.8091C18.3158 11.7002 18.2801 11.5951 18.225 11.5C18.1698 11.4052 18.0965 11.3222 18.0093 11.2558C17.922 11.1894 17.8225 11.1409 17.7164 11.113C17.6104 11.0851 17.4998 11.0785 17.3912 11.0934C17.2826 11.1083 17.1779 11.1445 17.0833 11.2Z" fill="#5D5FEF"/>
</svg>
