<svg width="20" height="20" viewBox="0 0 20 20" fill="none" xmlns="http://www.w3.org/2000/svg">
<path d="M18.3333 9.99993H4.16668V5.3416C4.16374 5.04147 4.24294 4.74625 4.3957 4.48788C4.54846 4.22952 4.76896 4.01784 5.03334 3.87576C5.32589 3.71763 5.65913 3.65087 5.99001 3.6841C5.82158 4.19404 5.79759 4.74065 5.9207 5.26339C6.04381 5.78612 6.30921 6.26458 6.68751 6.64576L7.57084 7.5291C7.64824 7.60658 7.74014 7.66804 7.84131 7.70998C7.94247 7.75192 8.05091 7.7735 8.16043 7.7735C8.26994 7.7735 8.37838 7.75192 8.47954 7.70998C8.58071 7.66804 8.67262 7.60658 8.75001 7.5291L11.6958 4.58326C11.8521 4.42699 11.9398 4.21507 11.9398 3.9941C11.9398 3.77313 11.8521 3.5612 11.6958 3.40493L10.8125 2.5216C10.3206 2.03179 9.66997 1.73382 8.97781 1.68141C8.28564 1.629 7.59752 1.8256 7.03751 2.23576C6.53267 2.03848 5.98726 1.96754 5.44875 2.02911C4.91024 2.09069 4.39493 2.28291 3.94765 2.58907C3.50037 2.89522 3.13467 3.30603 2.88237 3.78575C2.63007 4.26547 2.49881 4.79958 2.50001 5.3416V9.99993H1.66668C1.44566 9.99993 1.2337 10.0877 1.07742 10.244C0.921141 10.4003 0.833344 10.6122 0.833344 10.8333C0.833344 11.0543 0.921141 11.2662 1.07742 11.4225C1.2337 11.5788 1.44566 11.6666 1.66668 11.6666H2.50001V14.1666C2.50154 14.682 2.66257 15.1842 2.96099 15.6044C3.25941 16.0246 3.68058 16.3421 4.16668 16.5133V17.4999C4.16668 17.7209 4.25447 17.9329 4.41075 18.0892C4.56704 18.2455 4.779 18.3333 5.00001 18.3333C5.22102 18.3333 5.43299 18.2455 5.58927 18.0892C5.74555 17.9329 5.83334 17.7209 5.83334 17.4999V16.6666H14.1667V17.4999C14.1667 17.7209 14.2545 17.9329 14.4108 18.0892C14.567 18.2455 14.779 18.3333 15 18.3333C15.221 18.3333 15.433 18.2455 15.5893 18.0892C15.7455 17.9329 15.8333 17.7209 15.8333 17.4999V16.5133C16.3194 16.3421 16.7406 16.0246 17.039 15.6044C17.3375 15.1842 17.4985 14.682 17.5 14.1666V11.6666H18.3333C18.5544 11.6666 18.7663 11.5788 18.9226 11.4225C19.0789 11.2662 19.1667 11.0543 19.1667 10.8333C19.1667 10.6122 19.0789 10.4003 18.9226 10.244C18.7663 10.0877 18.5544 9.99993 18.3333 9.99993ZM7.86668 3.69993C8.10127 3.46625 8.41889 3.33505 8.75001 3.33505C9.08113 3.33505 9.39875 3.46625 9.63334 3.69993L9.92834 3.9941L8.16084 5.7616L7.86584 5.46743C7.63145 5.23288 7.49979 4.91485 7.49979 4.58326C7.49979 4.25167 7.63145 3.93365 7.86584 3.6991L7.86668 3.69993ZM15.8333 14.1666C15.8333 14.3876 15.7455 14.5996 15.5893 14.7559C15.433 14.9121 15.221 14.9999 15 14.9999H5.00001C4.779 14.9999 4.56704 14.9121 4.41075 14.7559C4.25447 14.5996 4.16668 14.3876 4.16668 14.1666V11.6666H15.8333V14.1666Z" fill="#5D5FEF"/>
</svg>
