<svg width="320" height="159" viewBox="0 0 320 159" fill="none" xmlns="http://www.w3.org/2000/svg">
<rect width="320" height="152" fill="white"/>
<rect width="120" height="120" transform="translate(16 16)" fill="#ADB5BD"/>
<path d="M151.108 78.194V76.79H152.362V78.194H151.108ZM151.108 68.576V67.166H152.362V68.576H151.108ZM151.798 77.18C151.198 77.18 150.662 77.072 150.19 76.856C149.718 76.64 149.33 76.334 149.026 75.938C148.726 75.538 148.53 75.066 148.438 74.522L149.68 74.324C149.8 74.836 150.056 75.244 150.448 75.548C150.84 75.848 151.31 75.998 151.858 75.998C152.402 75.998 152.844 75.868 153.184 75.608C153.528 75.348 153.7 75.016 153.7 74.612C153.7 74.324 153.612 74.09 153.436 73.91C153.264 73.73 152.982 73.578 152.59 73.454L150.562 72.83C149.362 72.458 148.762 71.738 148.762 70.67C148.762 70.166 148.882 69.728 149.122 69.356C149.366 68.984 149.708 68.696 150.148 68.492C150.588 68.288 151.102 68.186 151.69 68.186C152.254 68.194 152.754 68.298 153.19 68.498C153.63 68.698 153.994 68.986 154.282 69.362C154.574 69.738 154.776 70.19 154.888 70.718L153.61 70.946C153.554 70.638 153.436 70.366 153.256 70.13C153.08 69.894 152.856 69.71 152.584 69.578C152.316 69.446 152.014 69.378 151.678 69.374C151.362 69.366 151.078 69.416 150.826 69.524C150.578 69.628 150.38 69.776 150.232 69.968C150.088 70.156 150.016 70.37 150.016 70.61C150.016 70.874 150.118 71.098 150.322 71.282C150.526 71.466 150.848 71.624 151.288 71.756L152.878 72.218C153.606 72.434 154.132 72.724 154.456 73.088C154.78 73.452 154.942 73.936 154.942 74.54C154.942 75.068 154.81 75.53 154.546 75.926C154.286 76.318 153.92 76.626 153.448 76.85C152.976 77.07 152.426 77.18 151.798 77.18ZM155.983 76.994L155.989 75.878L159.751 72.506C160.055 72.238 160.261 71.982 160.369 71.738C160.481 71.494 160.537 71.25 160.537 71.006C160.537 70.698 160.469 70.422 160.333 70.178C160.197 69.93 160.009 69.734 159.769 69.59C159.529 69.446 159.253 69.374 158.941 69.374C158.621 69.374 158.335 69.45 158.083 69.602C157.835 69.75 157.641 69.948 157.501 70.196C157.361 70.444 157.293 70.712 157.297 71H156.013C156.013 70.44 156.139 69.95 156.391 69.53C156.647 69.106 156.997 68.776 157.441 68.54C157.885 68.3 158.393 68.18 158.965 68.18C159.509 68.18 159.997 68.304 160.429 68.552C160.861 68.796 161.201 69.132 161.449 69.56C161.701 69.988 161.827 70.476 161.827 71.024C161.827 71.42 161.775 71.756 161.671 72.032C161.567 72.308 161.411 72.564 161.203 72.8C160.995 73.036 160.735 73.292 160.423 73.568L157.519 76.16L157.381 75.8H161.827V76.994H155.983ZM163.146 78.434L163.224 77.876C163.396 77.888 163.53 77.856 163.626 77.78C163.722 77.704 163.786 77.598 163.818 77.462C163.85 77.326 163.856 77.172 163.836 77H163.146V75.554H164.472V77.12C164.472 77.592 164.358 77.948 164.13 78.188C163.906 78.428 163.578 78.51 163.146 78.434ZM169.164 77.162C168.736 77.162 168.334 77.082 167.958 76.922C167.582 76.758 167.256 76.526 166.98 76.226C166.708 75.926 166.51 75.572 166.386 75.164L167.598 74.828C167.714 75.2 167.916 75.486 168.204 75.686C168.492 75.882 168.812 75.978 169.164 75.974C169.48 75.97 169.758 75.896 169.998 75.752C170.238 75.608 170.426 75.414 170.562 75.17C170.698 74.922 170.766 74.638 170.766 74.318C170.766 73.838 170.616 73.442 170.316 73.13C170.02 72.818 169.632 72.662 169.152 72.662C169.016 72.662 168.876 72.682 168.732 72.722C168.592 72.762 168.46 72.814 168.336 72.878L167.748 71.888L170.796 69.194L170.928 69.554H166.728V68.36H171.924V69.554L169.392 71.99L169.38 71.582C169.924 71.582 170.396 71.704 170.796 71.948C171.196 72.188 171.504 72.516 171.72 72.932C171.94 73.344 172.05 73.806 172.05 74.318C172.05 74.87 171.92 75.36 171.66 75.788C171.404 76.216 171.058 76.552 170.622 76.796C170.19 77.04 169.704 77.162 169.164 77.162ZM174.063 77L177.099 69.554H173.253V68.36H178.449V69.554L175.419 77H174.063ZM182.865 77.18C182.305 77.18 181.801 77.048 181.353 76.784C180.905 76.516 180.549 76.15 180.285 75.686C180.025 75.222 179.895 74.694 179.895 74.102V71.348C179.895 70.72 180.025 70.168 180.285 69.692C180.549 69.216 180.913 68.846 181.377 68.582C181.845 68.318 182.383 68.186 182.991 68.186C183.447 68.186 183.875 68.272 184.275 68.444C184.675 68.616 185.021 68.872 185.313 69.212L184.395 70.07C184.231 69.858 184.025 69.69 183.777 69.566C183.533 69.438 183.271 69.374 182.991 69.374C182.631 69.374 182.315 69.46 182.043 69.632C181.771 69.8 181.557 70.022 181.401 70.298C181.249 70.574 181.173 70.87 181.173 71.186V72.77L180.927 72.494C181.175 72.17 181.483 71.914 181.851 71.726C182.219 71.538 182.613 71.444 183.033 71.444C183.569 71.444 184.047 71.57 184.467 71.822C184.891 72.07 185.223 72.408 185.463 72.836C185.707 73.264 185.829 73.746 185.829 74.282C185.829 74.822 185.693 75.312 185.421 75.752C185.153 76.188 184.793 76.536 184.341 76.796C183.893 77.052 183.401 77.18 182.865 77.18ZM182.865 75.974C183.177 75.974 183.461 75.898 183.717 75.746C183.973 75.594 184.177 75.39 184.329 75.134C184.481 74.878 184.557 74.594 184.557 74.282C184.557 73.97 184.481 73.686 184.329 73.43C184.181 73.174 183.979 72.97 183.723 72.818C183.467 72.666 183.183 72.59 182.871 72.59C182.559 72.59 182.273 72.666 182.013 72.818C181.757 72.97 181.553 73.174 181.401 73.43C181.249 73.686 181.173 73.97 181.173 74.282C181.173 74.59 181.249 74.872 181.401 75.128C181.553 75.384 181.757 75.59 182.013 75.746C182.269 75.898 182.553 75.974 182.865 75.974ZM187.228 78.434L187.306 77.876C187.478 77.888 187.612 77.856 187.708 77.78C187.804 77.704 187.868 77.598 187.9 77.462C187.932 77.326 187.938 77.172 187.918 77H187.228V75.554H188.554V77.12C188.554 77.592 188.44 77.948 188.212 78.188C187.988 78.428 187.66 78.51 187.228 78.434ZM193.39 77.18C192.946 77.18 192.532 77.09 192.148 76.91C191.768 76.726 191.442 76.474 191.17 76.154C190.898 75.83 190.704 75.458 190.588 75.038L191.794 74.714C191.862 74.97 191.978 75.192 192.142 75.38C192.31 75.568 192.506 75.714 192.73 75.818C192.954 75.918 193.186 75.968 193.426 75.968C193.742 75.968 194.028 75.892 194.284 75.74C194.544 75.588 194.748 75.384 194.896 75.128C195.048 74.872 195.124 74.59 195.124 74.282C195.124 73.966 195.046 73.68 194.89 73.424C194.738 73.168 194.532 72.966 194.272 72.818C194.016 72.666 193.734 72.59 193.426 72.59C193.074 72.59 192.776 72.66 192.532 72.8C192.288 72.94 192.098 73.102 191.962 73.286L190.87 72.902L191.134 68.36H195.796V69.542H191.776L192.286 69.068L192.076 72.47L191.83 72.152C192.058 71.924 192.33 71.75 192.646 71.63C192.962 71.51 193.276 71.45 193.588 71.45C194.124 71.45 194.602 71.574 195.022 71.822C195.446 72.07 195.78 72.408 196.024 72.836C196.268 73.26 196.39 73.742 196.39 74.282C196.39 74.818 196.252 75.306 195.976 75.746C195.7 76.182 195.334 76.53 194.878 76.79C194.422 77.05 193.926 77.18 193.39 77.18ZM200.242 77.162C199.814 77.162 199.412 77.082 199.036 76.922C198.66 76.758 198.334 76.526 198.058 76.226C197.786 75.926 197.588 75.572 197.464 75.164L198.676 74.828C198.792 75.2 198.994 75.486 199.282 75.686C199.57 75.882 199.89 75.978 200.242 75.974C200.558 75.97 200.836 75.896 201.076 75.752C201.316 75.608 201.504 75.414 201.64 75.17C201.776 74.922 201.844 74.638 201.844 74.318C201.844 73.838 201.694 73.442 201.394 73.13C201.098 72.818 200.71 72.662 200.23 72.662C200.094 72.662 199.954 72.682 199.81 72.722C199.67 72.762 199.538 72.814 199.414 72.878L198.826 71.888L201.874 69.194L202.006 69.554H197.806V68.36H203.002V69.554L200.47 71.99L200.458 71.582C201.002 71.582 201.474 71.704 201.874 71.948C202.274 72.188 202.582 72.516 202.798 72.932C203.018 73.344 203.128 73.806 203.128 74.318C203.128 74.87 202.998 75.36 202.738 75.788C202.482 76.216 202.136 76.552 201.7 76.796C201.268 77.04 200.782 77.162 200.242 77.162ZM208.352 77V75.494H204.452V74.306L207.26 68.36H208.694L205.886 74.306H208.352V71.966H209.624V74.306H210.482V75.494H209.624V77H208.352Z" fill="#101214"/>
<path d="M151.684 28.186C152.228 28.186 152.72 28.318 153.16 28.582C153.604 28.842 153.956 29.198 154.216 29.65C154.476 30.098 154.606 30.602 154.606 31.162V34.162C154.606 34.738 154.476 35.254 154.216 35.71C153.956 36.166 153.6 36.526 153.148 36.79C152.7 37.05 152.19 37.18 151.618 37.18C151.126 37.18 150.67 37.072 150.25 36.856C149.834 36.636 149.49 36.334 149.218 35.95L149.89 35.392C150.074 35.676 150.318 35.904 150.622 36.076C150.93 36.248 151.262 36.334 151.618 36.334C152.026 36.334 152.386 36.238 152.698 36.046C153.014 35.85 153.262 35.594 153.442 35.278C153.626 34.958 153.718 34.612 153.718 34.24V32.356L153.934 32.608C153.686 33.004 153.356 33.324 152.944 33.568C152.536 33.812 152.088 33.934 151.6 33.934C151.068 33.934 150.586 33.806 150.154 33.55C149.726 33.294 149.386 32.95 149.134 32.518C148.886 32.086 148.762 31.604 148.762 31.072C148.762 30.54 148.894 30.056 149.158 29.62C149.422 29.18 149.776 28.832 150.22 28.576C150.664 28.316 151.152 28.186 151.684 28.186ZM151.684 29.038C151.308 29.038 150.966 29.13 150.658 29.314C150.35 29.494 150.104 29.738 149.92 30.046C149.74 30.354 149.65 30.696 149.65 31.072C149.65 31.448 149.74 31.79 149.92 32.098C150.1 32.406 150.344 32.652 150.652 32.836C150.96 33.016 151.302 33.106 151.678 33.106C152.054 33.106 152.396 33.016 152.704 32.836C153.016 32.652 153.262 32.406 153.442 32.098C153.626 31.79 153.718 31.448 153.718 31.072C153.718 30.7 153.626 30.36 153.442 30.052C153.262 29.744 153.018 29.498 152.71 29.314C152.402 29.13 152.06 29.038 151.684 29.038ZM156.591 37L159.771 29.218H155.769V28.36H160.713V29.218L157.539 37H156.591ZM164.787 37.18C164.247 37.18 163.769 37.072 163.353 36.856C162.941 36.64 162.617 36.338 162.381 35.95C162.149 35.558 162.033 35.1 162.033 34.576C162.033 34.04 162.163 33.564 162.423 33.148C162.683 32.728 163.079 32.41 163.611 32.194L163.599 32.542C163.155 32.378 162.817 32.11 162.585 31.738C162.353 31.366 162.237 30.954 162.237 30.502C162.237 30.022 162.347 29.61 162.567 29.266C162.787 28.918 163.087 28.65 163.467 28.462C163.851 28.274 164.291 28.18 164.787 28.18C165.283 28.18 165.723 28.274 166.107 28.462C166.491 28.65 166.793 28.918 167.013 29.266C167.233 29.61 167.342 30.022 167.342 30.502C167.342 30.954 167.231 31.364 167.007 31.732C166.787 32.1 166.449 32.37 165.993 32.542L165.963 32.194C166.495 32.406 166.893 32.722 167.157 33.142C167.425 33.562 167.559 34.04 167.559 34.576C167.559 35.1 167.441 35.558 167.205 35.95C166.969 36.338 166.643 36.64 166.227 36.856C165.811 37.072 165.331 37.18 164.787 37.18ZM164.787 36.334C165.331 36.334 165.773 36.184 166.113 35.884C166.453 35.58 166.623 35.144 166.623 34.576C166.623 34 166.455 33.564 166.119 33.268C165.783 32.968 165.339 32.818 164.787 32.818C164.235 32.818 163.793 32.968 163.461 33.268C163.129 33.564 162.963 34 162.963 34.576C162.963 35.144 163.131 35.58 163.467 35.884C163.803 36.184 164.243 36.334 164.787 36.334ZM164.787 31.966C165.267 31.966 165.657 31.844 165.957 31.6C166.257 31.352 166.407 30.986 166.407 30.502C166.407 30.018 166.257 29.656 165.957 29.416C165.657 29.172 165.267 29.05 164.787 29.05C164.307 29.05 163.917 29.172 163.617 29.416C163.321 29.656 163.173 30.018 163.173 30.502C163.173 30.986 163.321 31.352 163.617 31.6C163.917 31.844 164.307 31.966 164.787 31.966ZM171.957 28.186C172.501 28.186 172.993 28.318 173.433 28.582C173.877 28.842 174.229 29.198 174.489 29.65C174.749 30.098 174.879 30.602 174.879 31.162V34.162C174.879 34.738 174.749 35.254 174.489 35.71C174.229 36.166 173.873 36.526 173.421 36.79C172.973 37.05 172.463 37.18 171.891 37.18C171.399 37.18 170.943 37.072 170.523 36.856C170.107 36.636 169.763 36.334 169.491 35.95L170.163 35.392C170.347 35.676 170.591 35.904 170.895 36.076C171.203 36.248 171.535 36.334 171.891 36.334C172.299 36.334 172.659 36.238 172.971 36.046C173.287 35.85 173.535 35.594 173.715 35.278C173.899 34.958 173.991 34.612 173.991 34.24V32.356L174.207 32.608C173.959 33.004 173.629 33.324 173.217 33.568C172.809 33.812 172.361 33.934 171.873 33.934C171.341 33.934 170.859 33.806 170.427 33.55C169.999 33.294 169.659 32.95 169.407 32.518C169.159 32.086 169.035 31.604 169.035 31.072C169.035 30.54 169.167 30.056 169.431 29.62C169.695 29.18 170.049 28.832 170.493 28.576C170.937 28.316 171.425 28.186 171.957 28.186ZM171.957 29.038C171.581 29.038 171.239 29.13 170.931 29.314C170.623 29.494 170.377 29.738 170.193 30.046C170.013 30.354 169.923 30.696 169.923 31.072C169.923 31.448 170.013 31.79 170.193 32.098C170.373 32.406 170.617 32.652 170.925 32.836C171.233 33.016 171.575 33.106 171.951 33.106C172.327 33.106 172.669 33.016 172.977 32.836C173.289 32.652 173.535 32.406 173.715 32.098C173.899 31.79 173.991 31.448 173.991 31.072C173.991 30.7 173.899 30.36 173.715 30.052C173.535 29.744 173.291 29.498 172.983 29.314C172.675 29.13 172.333 29.038 171.957 29.038ZM178.957 37V28.36H182.293C182.377 28.36 182.471 28.364 182.575 28.372C182.683 28.376 182.791 28.388 182.899 28.408C183.351 28.476 183.733 28.634 184.045 28.882C184.361 29.126 184.599 29.434 184.759 29.806C184.923 30.178 185.005 30.59 185.005 31.042C185.005 31.694 184.833 32.26 184.489 32.74C184.145 33.22 183.653 33.522 183.013 33.646L182.707 33.718H179.839V37H178.957ZM184.189 37L182.485 33.484L183.331 33.16L185.203 37H184.189ZM179.839 32.878H182.269C182.341 32.878 182.425 32.874 182.521 32.866C182.617 32.858 182.711 32.844 182.803 32.824C183.099 32.76 183.341 32.638 183.529 32.458C183.721 32.278 183.863 32.064 183.955 31.816C184.051 31.568 184.099 31.31 184.099 31.042C184.099 30.774 184.051 30.516 183.955 30.268C183.863 30.016 183.721 29.8 183.529 29.62C183.341 29.44 183.099 29.318 182.803 29.254C182.711 29.234 182.617 29.222 182.521 29.218C182.425 29.21 182.341 29.206 182.269 29.206H179.839V32.878ZM186.648 29.29V28.3H187.53V29.29H186.648ZM186.648 37V30.52H187.53V37H186.648ZM191.08 37L188.728 30.52H189.622L191.536 35.848L193.438 30.52H194.344L191.992 37H191.08ZM197.93 37.18C197.298 37.18 196.75 37.04 196.286 36.76C195.826 36.48 195.468 36.086 195.212 35.578C194.956 35.07 194.828 34.474 194.828 33.79C194.828 33.082 194.954 32.47 195.206 31.954C195.458 31.438 195.812 31.04 196.268 30.76C196.728 30.48 197.27 30.34 197.894 30.34C198.534 30.34 199.08 30.488 199.532 30.784C199.984 31.076 200.326 31.496 200.558 32.044C200.79 32.592 200.896 33.246 200.876 34.006H199.976V33.694C199.96 32.854 199.778 32.22 199.43 31.792C199.086 31.364 198.582 31.15 197.918 31.15C197.222 31.15 196.688 31.376 196.316 31.828C195.948 32.28 195.764 32.924 195.764 33.76C195.764 34.576 195.948 35.21 196.316 35.662C196.688 36.11 197.214 36.334 197.894 36.334C198.358 36.334 198.762 36.228 199.106 36.016C199.454 35.8 199.728 35.49 199.928 35.086L200.75 35.404C200.494 35.968 200.116 36.406 199.616 36.718C199.12 37.026 198.558 37.18 197.93 37.18ZM195.452 34.006V33.268H200.402V34.006H195.452ZM202.207 37V30.52H202.999V32.08L202.843 31.876C202.915 31.684 203.009 31.508 203.125 31.348C203.241 31.184 203.367 31.05 203.503 30.946C203.671 30.798 203.867 30.686 204.091 30.61C204.315 30.53 204.541 30.484 204.769 30.472C204.997 30.456 205.205 30.472 205.393 30.52V31.348C205.157 31.288 204.899 31.274 204.619 31.306C204.339 31.338 204.081 31.45 203.845 31.642C203.629 31.81 203.467 32.012 203.359 32.248C203.251 32.48 203.179 32.728 203.143 32.992C203.107 33.252 203.089 33.51 203.089 33.766V37H202.207ZM208.283 37L205.931 30.52H206.825L208.739 35.848L210.641 30.52H211.547L209.195 37H208.283ZM212.745 29.29V28.3H213.627V29.29H212.745ZM212.745 37V30.52H213.627V37H212.745ZM218.168 37.18C217.536 37.18 216.988 37.04 216.524 36.76C216.064 36.48 215.706 36.086 215.45 35.578C215.194 35.07 215.066 34.474 215.066 33.79C215.066 33.082 215.192 32.47 215.444 31.954C215.696 31.438 216.05 31.04 216.506 30.76C216.966 30.48 217.508 30.34 218.132 30.34C218.772 30.34 219.318 30.488 219.77 30.784C220.222 31.076 220.564 31.496 220.796 32.044C221.028 32.592 221.134 33.246 221.114 34.006H220.214V33.694C220.198 32.854 220.016 32.22 219.668 31.792C219.324 31.364 218.82 31.15 218.156 31.15C217.46 31.15 216.926 31.376 216.554 31.828C216.186 32.28 216.002 32.924 216.002 33.76C216.002 34.576 216.186 35.21 216.554 35.662C216.926 36.11 217.452 36.334 218.132 36.334C218.596 36.334 219 36.228 219.344 36.016C219.692 35.8 219.966 35.49 220.166 35.086L220.988 35.404C220.732 35.968 220.354 36.406 219.854 36.718C219.358 37.026 218.796 37.18 218.168 37.18ZM215.69 34.006V33.268H220.64V34.006H215.69ZM223.591 37L221.611 30.514L222.493 30.52L224.029 35.554L225.571 30.52H226.375L227.917 35.554L229.465 30.52H230.341L228.361 37H227.593L225.973 31.84L224.359 37H223.591ZM152.338 53.18C151.478 53.18 150.752 52.99 150.16 52.61C149.568 52.226 149.12 51.696 148.816 51.02C148.512 50.344 148.36 49.564 148.36 48.68C148.36 47.796 148.512 47.016 148.816 46.34C149.12 45.664 149.568 45.136 150.16 44.756C150.752 44.372 151.478 44.18 152.338 44.18C153.342 44.18 154.162 44.438 154.798 44.954C155.434 45.466 155.87 46.154 156.106 47.018L155.206 47.252C155.022 46.568 154.692 46.026 154.216 45.626C153.74 45.226 153.114 45.026 152.338 45.026C151.662 45.026 151.1 45.18 150.652 45.488C150.204 45.796 149.866 46.226 149.638 46.778C149.414 47.326 149.298 47.96 149.29 48.68C149.286 49.4 149.396 50.034 149.62 50.582C149.848 51.13 150.188 51.56 150.64 51.872C151.096 52.18 151.662 52.334 152.338 52.334C153.114 52.334 153.74 52.134 154.216 51.734C154.692 51.33 155.022 50.788 155.206 50.108L156.106 50.342C155.87 51.206 155.434 51.896 154.798 52.412C154.162 52.924 153.342 53.18 152.338 53.18ZM160.136 53.18C159.492 53.18 158.942 53.034 158.486 52.742C158.03 52.45 157.68 52.046 157.436 51.53C157.192 51.014 157.07 50.422 157.07 49.754C157.07 49.074 157.194 48.478 157.442 47.966C157.69 47.454 158.042 47.056 158.498 46.772C158.958 46.484 159.504 46.34 160.136 46.34C160.784 46.34 161.336 46.486 161.792 46.778C162.252 47.066 162.602 47.468 162.842 47.984C163.086 48.496 163.208 49.086 163.208 49.754C163.208 50.434 163.086 51.032 162.842 51.548C162.598 52.06 162.246 52.46 161.786 52.748C161.326 53.036 160.776 53.18 160.136 53.18ZM160.136 52.334C160.856 52.334 161.392 52.096 161.744 51.62C162.096 51.14 162.272 50.518 162.272 49.754C162.272 48.97 162.094 48.346 161.738 47.882C161.386 47.418 160.852 47.186 160.136 47.186C159.652 47.186 159.252 47.296 158.936 47.516C158.624 47.732 158.39 48.034 158.234 48.422C158.082 48.806 158.006 49.25 158.006 49.754C158.006 50.534 158.186 51.16 158.546 51.632C158.906 52.1 159.436 52.334 160.136 52.334ZM167.009 53.162C166.621 53.162 166.281 53.102 165.989 52.982C165.701 52.862 165.455 52.7 165.251 52.496C165.051 52.292 164.889 52.06 164.765 51.8C164.641 51.536 164.551 51.258 164.495 50.966C164.439 50.67 164.411 50.376 164.411 50.084V46.52H165.299V49.826C165.299 50.182 165.333 50.512 165.401 50.816C165.469 51.12 165.577 51.386 165.725 51.614C165.877 51.838 166.071 52.012 166.307 52.136C166.547 52.26 166.837 52.322 167.177 52.322C167.489 52.322 167.763 52.268 167.999 52.16C168.239 52.052 168.439 51.898 168.599 51.698C168.763 51.494 168.887 51.248 168.971 50.96C169.055 50.668 169.097 50.34 169.097 49.976L169.721 50.114C169.721 50.778 169.605 51.336 169.373 51.788C169.141 52.24 168.821 52.582 168.413 52.814C168.005 53.046 167.537 53.162 167.009 53.162ZM169.187 53V51.404H169.097V46.52H169.979V53H169.187ZM171.656 53V46.52H172.448V48.08L172.292 47.876C172.364 47.684 172.458 47.508 172.574 47.348C172.69 47.184 172.816 47.05 172.952 46.946C173.12 46.798 173.316 46.686 173.54 46.61C173.764 46.53 173.99 46.484 174.218 46.472C174.446 46.456 174.654 46.472 174.842 46.52V47.348C174.606 47.288 174.348 47.274 174.068 47.306C173.788 47.338 173.53 47.45 173.294 47.642C173.078 47.81 172.916 48.012 172.808 48.248C172.7 48.48 172.628 48.728 172.592 48.992C172.556 49.252 172.538 49.51 172.538 49.766V53H171.656ZM179.509 53C179.145 53.076 178.785 53.106 178.429 53.09C178.077 53.074 177.761 52.998 177.481 52.862C177.205 52.726 176.995 52.514 176.851 52.226C176.735 51.986 176.671 51.744 176.659 51.5C176.651 51.252 176.647 50.97 176.647 50.654V44.72H177.523V50.618C177.523 50.89 177.525 51.118 177.529 51.302C177.537 51.482 177.579 51.642 177.655 51.782C177.799 52.05 178.027 52.21 178.339 52.262C178.655 52.314 179.045 52.302 179.509 52.226V53ZM175.261 47.276V46.52H179.509V47.276H175.261ZM183.083 53V45.206H180.065V44.36H186.983V45.206H183.965V53H183.083ZM187.348 53V46.52H188.14V48.08L187.984 47.876C188.056 47.684 188.15 47.508 188.266 47.348C188.382 47.184 188.508 47.05 188.644 46.946C188.812 46.798 189.008 46.686 189.232 46.61C189.456 46.53 189.682 46.484 189.91 46.472C190.138 46.456 190.346 46.472 190.534 46.52V47.348C190.298 47.288 190.04 47.274 189.76 47.306C189.48 47.338 189.222 47.45 188.986 47.642C188.77 47.81 188.608 48.012 188.5 48.248C188.392 48.48 188.32 48.728 188.284 48.992C188.248 49.252 188.23 49.51 188.23 49.766V53H187.348ZM194.297 53.18C193.665 53.18 193.117 53.04 192.653 52.76C192.193 52.48 191.835 52.086 191.579 51.578C191.323 51.07 191.195 50.474 191.195 49.79C191.195 49.082 191.321 48.47 191.573 47.954C191.825 47.438 192.179 47.04 192.635 46.76C193.095 46.48 193.637 46.34 194.261 46.34C194.901 46.34 195.447 46.488 195.899 46.784C196.351 47.076 196.693 47.496 196.925 48.044C197.157 48.592 197.263 49.246 197.243 50.006H196.343V49.694C196.327 48.854 196.145 48.22 195.797 47.792C195.453 47.364 194.949 47.15 194.285 47.15C193.589 47.15 193.055 47.376 192.683 47.828C192.315 48.28 192.131 48.924 192.131 49.76C192.131 50.576 192.315 51.21 192.683 51.662C193.055 52.11 193.581 52.334 194.261 52.334C194.725 52.334 195.129 52.228 195.473 52.016C195.821 51.8 196.095 51.49 196.295 51.086L197.117 51.404C196.861 51.968 196.483 52.406 195.983 52.718C195.487 53.026 194.925 53.18 194.297 53.18ZM191.819 50.006V49.268H196.769V50.006H191.819ZM203.079 53V49.694C203.079 49.334 203.045 49.004 202.977 48.704C202.909 48.4 202.799 48.136 202.647 47.912C202.499 47.684 202.305 47.508 202.065 47.384C201.829 47.26 201.541 47.198 201.201 47.198C200.889 47.198 200.613 47.252 200.373 47.36C200.137 47.468 199.937 47.624 199.773 47.828C199.613 48.028 199.491 48.272 199.407 48.56C199.323 48.848 199.281 49.176 199.281 49.544L198.657 49.406C198.657 48.742 198.773 48.184 199.005 47.732C199.237 47.28 199.557 46.938 199.965 46.706C200.373 46.474 200.841 46.358 201.369 46.358C201.757 46.358 202.095 46.418 202.383 46.538C202.675 46.658 202.921 46.82 203.121 47.024C203.325 47.228 203.489 47.462 203.613 47.726C203.737 47.986 203.827 48.264 203.883 48.56C203.939 48.852 203.967 49.144 203.967 49.436V53H203.079ZM198.393 53V46.52H199.191V48.116H199.281V53H198.393ZM209.052 53C208.688 53.076 208.328 53.106 207.972 53.09C207.62 53.074 207.304 52.998 207.024 52.862C206.748 52.726 206.538 52.514 206.394 52.226C206.278 51.986 206.214 51.744 206.202 51.5C206.194 51.252 206.19 50.97 206.19 50.654V44.72H207.066V50.618C207.066 50.89 207.068 51.118 207.072 51.302C207.08 51.482 207.122 51.642 207.198 51.782C207.342 52.05 207.57 52.21 207.882 52.262C208.198 52.314 208.588 52.302 209.052 52.226V53ZM204.804 47.276V46.52H209.052V47.276H204.804ZM212.8 53.18C212.156 53.18 211.606 53.034 211.15 52.742C210.694 52.45 210.344 52.046 210.1 51.53C209.856 51.014 209.734 50.422 209.734 49.754C209.734 49.074 209.858 48.478 210.106 47.966C210.354 47.454 210.706 47.056 211.162 46.772C211.622 46.484 212.168 46.34 212.8 46.34C213.448 46.34 214 46.486 214.456 46.778C214.916 47.066 215.266 47.468 215.506 47.984C215.75 48.496 215.872 49.086 215.872 49.754C215.872 50.434 215.75 51.032 215.506 51.548C215.262 52.06 214.91 52.46 214.45 52.748C213.99 53.036 213.44 53.18 212.8 53.18ZM212.8 52.334C213.52 52.334 214.056 52.096 214.408 51.62C214.76 51.14 214.936 50.518 214.936 49.754C214.936 48.97 214.758 48.346 214.402 47.882C214.05 47.418 213.516 47.186 212.8 47.186C212.316 47.186 211.916 47.296 211.6 47.516C211.288 47.732 211.054 48.034 210.898 48.422C210.746 48.806 210.67 49.25 210.67 49.754C210.67 50.534 210.85 51.16 211.21 51.632C211.57 52.1 212.1 52.334 212.8 52.334ZM221.875 53V49.694C221.875 49.334 221.841 49.004 221.773 48.704C221.705 48.4 221.595 48.136 221.443 47.912C221.295 47.684 221.101 47.508 220.861 47.384C220.625 47.26 220.337 47.198 219.997 47.198C219.685 47.198 219.409 47.252 219.169 47.36C218.933 47.468 218.733 47.624 218.569 47.828C218.409 48.028 218.287 48.272 218.203 48.56C218.119 48.848 218.077 49.176 218.077 49.544L217.453 49.406C217.453 48.742 217.569 48.184 217.801 47.732C218.033 47.28 218.353 46.938 218.761 46.706C219.169 46.474 219.637 46.358 220.165 46.358C220.553 46.358 220.891 46.418 221.179 46.538C221.471 46.658 221.717 46.82 221.917 47.024C222.121 47.228 222.285 47.462 222.409 47.726C222.533 47.986 222.623 48.264 222.679 48.56C222.735 48.852 222.763 49.144 222.763 49.436V53H221.875ZM217.189 53V46.52H217.987V48.116H218.077V53H217.189ZM224.2 54.254L224.254 53.816C224.414 53.828 224.53 53.796 224.602 53.72C224.674 53.644 224.718 53.542 224.734 53.414C224.75 53.286 224.754 53.148 224.746 53H224.2V51.734H225.226V53.24C225.226 53.608 225.132 53.884 224.944 54.068C224.76 54.252 224.512 54.314 224.2 54.254ZM233.408 53.18C232.548 53.18 231.822 52.99 231.23 52.61C230.638 52.226 230.19 51.696 229.886 51.02C229.582 50.344 229.43 49.564 229.43 48.68C229.43 47.796 229.582 47.016 229.886 46.34C230.19 45.664 230.638 45.136 231.23 44.756C231.822 44.372 232.548 44.18 233.408 44.18C234.272 44.18 234.998 44.372 235.586 44.756C236.178 45.136 236.626 45.664 236.93 46.34C237.238 47.016 237.392 47.796 237.392 48.68C237.392 49.564 237.238 50.344 236.93 51.02C236.626 51.696 236.178 52.226 235.586 52.61C234.998 52.99 234.272 53.18 233.408 53.18ZM233.408 52.334C234.084 52.334 234.648 52.18 235.1 51.872C235.552 51.564 235.89 51.136 236.114 50.588C236.342 50.036 236.456 49.4 236.456 48.68C236.456 47.96 236.342 47.326 236.114 46.778C235.89 46.23 235.552 45.802 235.1 45.494C234.648 45.186 234.084 45.03 233.408 45.026C232.732 45.026 232.17 45.18 231.722 45.488C231.274 45.796 230.936 46.226 230.708 46.778C230.484 47.326 230.37 47.96 230.366 48.68C230.362 49.4 230.472 50.034 230.696 50.582C230.924 51.126 231.264 51.554 231.716 51.866C232.168 52.174 232.732 52.33 233.408 52.334ZM238.594 53V44.36H239.482L244.24 51.44V44.36H245.128V53H244.24L239.482 45.914V53H238.594ZM249.211 53V44.36H250.093V48.44L254.035 44.36H255.163L251.137 48.53L255.493 53H254.341L250.093 48.68V53H249.211ZM258.97 53.18C258.43 53.18 257.952 53.072 257.536 52.856C257.124 52.64 256.8 52.338 256.564 51.95C256.332 51.558 256.216 51.1 256.216 50.576C256.216 50.04 256.346 49.564 256.606 49.148C256.866 48.728 257.262 48.41 257.794 48.194L257.782 48.542C257.338 48.378 257 48.11 256.768 47.738C256.536 47.366 256.42 46.954 256.42 46.502C256.42 46.022 256.53 45.61 256.75 45.266C256.97 44.918 257.27 44.65 257.65 44.462C258.034 44.274 258.474 44.18 258.97 44.18C259.466 44.18 259.906 44.274 260.29 44.462C260.674 44.65 260.976 44.918 261.196 45.266C261.416 45.61 261.526 46.022 261.526 46.502C261.526 46.954 261.414 47.364 261.19 47.732C260.97 48.1 260.632 48.37 260.176 48.542L260.146 48.194C260.678 48.406 261.076 48.722 261.34 49.142C261.608 49.562 261.742 50.04 261.742 50.576C261.742 51.1 261.624 51.558 261.388 51.95C261.152 52.338 260.826 52.64 260.41 52.856C259.994 53.072 259.514 53.18 258.97 53.18ZM258.97 52.334C259.514 52.334 259.956 52.184 260.296 51.884C260.636 51.58 260.806 51.144 260.806 50.576C260.806 50 260.638 49.564 260.302 49.268C259.966 48.968 259.522 48.818 258.97 48.818C258.418 48.818 257.976 48.968 257.644 49.268C257.312 49.564 257.146 50 257.146 50.576C257.146 51.144 257.314 51.58 257.65 51.884C257.986 52.184 258.426 52.334 258.97 52.334ZM258.97 47.966C259.45 47.966 259.84 47.844 260.14 47.6C260.44 47.352 260.59 46.986 260.59 46.502C260.59 46.018 260.44 45.656 260.14 45.416C259.84 45.172 259.45 45.05 258.97 45.05C258.49 45.05 258.1 45.172 257.8 45.416C257.504 45.656 257.356 46.018 257.356 46.502C257.356 46.986 257.504 47.352 257.8 47.6C258.1 47.844 258.49 47.966 258.97 47.966ZM265.493 53L262.517 44.36H263.435L266.069 51.998L268.721 44.36H269.639L266.663 53H265.493ZM275.264 53.174C274.836 53.174 274.442 53.098 274.082 52.946C273.722 52.794 273.412 52.578 273.152 52.298C272.892 52.014 272.702 51.676 272.582 51.284L273.422 51.032C273.566 51.46 273.802 51.784 274.13 52.004C274.462 52.224 274.836 52.33 275.252 52.322C275.636 52.314 275.966 52.228 276.242 52.064C276.522 51.9 276.736 51.672 276.884 51.38C277.032 51.088 277.106 50.75 277.106 50.366C277.106 49.778 276.934 49.306 276.59 48.95C276.25 48.59 275.8 48.41 275.24 48.41C275.084 48.41 274.92 48.432 274.748 48.476C274.576 48.516 274.416 48.574 274.268 48.65L273.824 47.948L277.184 44.846L277.328 45.206H272.924V44.36H277.916V45.218L274.988 48.014L274.976 47.666C275.576 47.59 276.104 47.658 276.56 47.87C277.016 48.082 277.372 48.406 277.628 48.842C277.888 49.274 278.018 49.782 278.018 50.366C278.018 50.918 277.898 51.406 277.658 51.83C277.422 52.25 277.096 52.58 276.68 52.82C276.264 53.056 275.792 53.174 275.264 53.174ZM282.574 53.18C281.97 53.18 281.426 53.08 280.942 52.88C280.462 52.676 280.064 52.388 279.748 52.016C279.436 51.644 279.232 51.202 279.136 50.69L280.036 50.54C280.18 51.1 280.484 51.54 280.948 51.86C281.412 52.176 281.966 52.334 282.61 52.334C283.034 52.334 283.414 52.268 283.75 52.136C284.086 52 284.35 51.808 284.542 51.56C284.734 51.312 284.83 51.018 284.83 50.678C284.83 50.454 284.79 50.264 284.71 50.108C284.63 49.948 284.524 49.816 284.392 49.712C284.26 49.608 284.116 49.522 283.96 49.454C283.804 49.382 283.652 49.324 283.504 49.28L281.314 48.626C281.05 48.55 280.806 48.454 280.582 48.338C280.358 48.218 280.162 48.076 279.994 47.912C279.83 47.744 279.702 47.548 279.61 47.324C279.518 47.1 279.472 46.844 279.472 46.556C279.472 46.068 279.6 45.646 279.856 45.29C280.112 44.934 280.462 44.66 280.906 44.468C281.35 44.276 281.856 44.182 282.424 44.186C283 44.186 283.514 44.288 283.966 44.492C284.422 44.696 284.798 44.988 285.094 45.368C285.39 45.744 285.586 46.19 285.682 46.706L284.758 46.874C284.698 46.498 284.56 46.172 284.344 45.896C284.128 45.62 283.852 45.408 283.516 45.26C283.184 45.108 282.818 45.03 282.418 45.026C282.03 45.026 281.684 45.092 281.38 45.224C281.08 45.352 280.842 45.528 280.666 45.752C280.49 45.976 280.402 46.232 280.402 46.52C280.402 46.812 280.482 47.046 280.642 47.222C280.806 47.398 281.006 47.536 281.242 47.636C281.482 47.736 281.714 47.818 281.938 47.882L283.63 48.38C283.806 48.428 284.012 48.498 284.248 48.59C284.488 48.678 284.72 48.806 284.944 48.974C285.172 49.138 285.36 49.354 285.508 49.622C285.656 49.89 285.73 50.23 285.73 50.642C285.73 51.042 285.65 51.4 285.49 51.716C285.334 52.032 285.112 52.298 284.824 52.514C284.54 52.73 284.206 52.894 283.822 53.006C283.442 53.122 283.026 53.18 282.574 53.18ZM289.789 53.18C289.257 53.18 288.777 53.056 288.349 52.808C287.925 52.56 287.589 52.224 287.341 51.8C287.093 51.372 286.969 50.892 286.969 50.36V47C286.969 46.468 287.093 45.99 287.341 45.566C287.589 45.138 287.925 44.8 288.349 44.552C288.777 44.304 289.257 44.18 289.789 44.18C290.321 44.18 290.799 44.304 291.223 44.552C291.651 44.8 291.989 45.138 292.237 45.566C292.485 45.99 292.609 46.468 292.609 47V50.36C292.609 50.892 292.485 51.372 292.237 51.8C291.989 52.224 291.651 52.56 291.223 52.808C290.799 53.056 290.321 53.18 289.789 53.18ZM289.789 52.328C290.145 52.328 290.469 52.242 290.761 52.07C291.053 51.894 291.285 51.66 291.457 51.368C291.629 51.076 291.715 50.754 291.715 50.402V46.958C291.715 46.602 291.629 46.278 291.457 45.986C291.285 45.694 291.053 45.462 290.761 45.29C290.469 45.114 290.145 45.026 289.789 45.026C289.433 45.026 289.109 45.114 288.817 45.29C288.525 45.462 288.293 45.694 288.121 45.986C287.949 46.278 287.863 46.602 287.863 46.958V50.402C287.863 50.754 287.949 51.076 288.121 51.368C288.293 51.66 288.525 51.894 288.817 52.07C289.109 52.242 289.433 52.328 289.789 52.328Z" fill="#101214"/>
<path d="M149.667 119.04L155.667 122.507C155.768 122.565 155.883 122.596 156 122.596C156.117 122.596 156.232 122.565 156.333 122.507L162.333 119.04C162.434 118.981 162.518 118.897 162.576 118.796C162.635 118.695 162.665 118.58 162.665 118.463C162.665 118.346 162.635 118.232 162.576 118.13C162.518 118.029 162.434 117.945 162.333 117.887L156.333 114.42C156.232 114.361 156.117 114.331 156 114.331C155.883 114.331 155.768 114.361 155.667 114.42L149.667 117.887C149.566 117.945 149.482 118.029 149.423 118.13C149.365 118.232 149.334 118.346 149.334 118.463C149.334 118.58 149.365 118.695 149.423 118.796C149.482 118.897 149.566 118.981 149.667 119.04ZM156 115.767L160.667 118.433L156 121.133L151.333 118.46L156 115.767ZM161.667 120.96L156 124.233L150.333 120.96C150.258 120.916 150.174 120.887 150.087 120.875C150 120.863 149.912 120.868 149.827 120.89C149.742 120.913 149.662 120.951 149.592 121.005C149.523 121.058 149.464 121.124 149.42 121.2C149.376 121.276 149.347 121.36 149.336 121.447C149.324 121.534 149.33 121.623 149.353 121.708C149.376 121.793 149.416 121.872 149.469 121.942C149.523 122.011 149.59 122.07 149.667 122.113L155.667 125.58C155.768 125.638 155.883 125.669 156 125.669C156.117 125.669 156.232 125.638 156.333 125.58L162.333 122.113C162.41 122.07 162.477 122.011 162.53 121.942C162.584 121.872 162.624 121.793 162.647 121.708C162.67 121.623 162.675 121.534 162.664 121.447C162.653 121.36 162.624 121.276 162.58 121.2C162.536 121.124 162.477 121.058 162.407 121.005C162.338 120.951 162.258 120.913 162.173 120.89C162.088 120.868 162 120.863 161.913 120.875C161.826 120.887 161.742 120.916 161.667 120.96Z" fill="#5D5FEF"/>
<path d="M174.346 125V117.344L172.72 118.322V117.332L174.346 116.36H175.24V125H174.346ZM180.336 125.18C179.804 125.18 179.324 125.056 178.896 124.808C178.472 124.56 178.136 124.224 177.888 123.8C177.64 123.372 177.516 122.892 177.516 122.36V119C177.516 118.468 177.64 117.99 177.888 117.566C178.136 117.138 178.472 116.8 178.896 116.552C179.324 116.304 179.804 116.18 180.336 116.18C180.868 116.18 181.346 116.304 181.77 116.552C182.198 116.8 182.536 117.138 182.784 117.566C183.032 117.99 183.156 118.468 183.156 119V122.36C183.156 122.892 183.032 123.372 182.784 123.8C182.536 124.224 182.198 124.56 181.77 124.808C181.346 125.056 180.868 125.18 180.336 125.18ZM180.336 124.328C180.692 124.328 181.016 124.242 181.308 124.07C181.6 123.894 181.832 123.66 182.004 123.368C182.176 123.076 182.262 122.754 182.262 122.402V118.958C182.262 118.602 182.176 118.278 182.004 117.986C181.832 117.694 181.6 117.462 181.308 117.29C181.016 117.114 180.692 117.026 180.336 117.026C179.98 117.026 179.656 117.114 179.364 117.29C179.072 117.462 178.84 117.694 178.668 117.986C178.496 118.278 178.41 118.602 178.41 118.958V122.402C178.41 122.754 178.496 123.076 178.668 123.368C178.84 123.66 179.072 123.894 179.364 124.07C179.656 124.242 179.98 124.328 180.336 124.328ZM187.66 125.18C187.128 125.18 186.648 125.056 186.22 124.808C185.796 124.56 185.46 124.224 185.212 123.8C184.964 123.372 184.84 122.892 184.84 122.36V119C184.84 118.468 184.964 117.99 185.212 117.566C185.46 117.138 185.796 116.8 186.22 116.552C186.648 116.304 187.128 116.18 187.66 116.18C188.192 116.18 188.67 116.304 189.094 116.552C189.522 116.8 189.86 117.138 190.108 117.566C190.356 117.99 190.48 118.468 190.48 119V122.36C190.48 122.892 190.356 123.372 190.108 123.8C189.86 124.224 189.522 124.56 189.094 124.808C188.67 125.056 188.192 125.18 187.66 125.18ZM187.66 124.328C188.016 124.328 188.34 124.242 188.632 124.07C188.924 123.894 189.156 123.66 189.328 123.368C189.5 123.076 189.586 122.754 189.586 122.402V118.958C189.586 118.602 189.5 118.278 189.328 117.986C189.156 117.694 188.924 117.462 188.632 117.29C188.34 117.114 188.016 117.026 187.66 117.026C187.304 117.026 186.98 117.114 186.688 117.29C186.396 117.462 186.164 117.694 185.992 117.986C185.82 118.278 185.734 118.602 185.734 118.958V122.402C185.734 122.754 185.82 123.076 185.992 123.368C186.164 123.66 186.396 123.894 186.688 124.07C186.98 124.242 187.304 124.328 187.66 124.328ZM194.984 125.18C194.452 125.18 193.972 125.056 193.544 124.808C193.12 124.56 192.784 124.224 192.536 123.8C192.288 123.372 192.164 122.892 192.164 122.36V119C192.164 118.468 192.288 117.99 192.536 117.566C192.784 117.138 193.12 116.8 193.544 116.552C193.972 116.304 194.452 116.18 194.984 116.18C195.516 116.18 195.994 116.304 196.418 116.552C196.846 116.8 197.184 117.138 197.432 117.566C197.68 117.99 197.804 118.468 197.804 119V122.36C197.804 122.892 197.68 123.372 197.432 123.8C197.184 124.224 196.846 124.56 196.418 124.808C195.994 125.056 195.516 125.18 194.984 125.18ZM194.984 124.328C195.34 124.328 195.664 124.242 195.956 124.07C196.248 123.894 196.48 123.66 196.652 123.368C196.824 123.076 196.91 122.754 196.91 122.402V118.958C196.91 118.602 196.824 118.278 196.652 117.986C196.48 117.694 196.248 117.462 195.956 117.29C195.664 117.114 195.34 117.026 194.984 117.026C194.628 117.026 194.304 117.114 194.012 117.29C193.72 117.462 193.488 117.694 193.316 117.986C193.144 118.278 193.058 118.602 193.058 118.958V122.402C193.058 122.754 193.144 123.076 193.316 123.368C193.488 123.66 193.72 123.894 194.012 124.07C194.304 124.242 194.628 124.328 194.984 124.328ZM201.771 121.598V120.842H205.371V121.598H201.771ZM210.838 125V117.344L209.212 118.322V117.332L210.838 116.36H211.732V125H210.838ZM216.558 125.18C216.11 125.18 215.696 125.088 215.316 124.904C214.936 124.72 214.612 124.466 214.344 124.142C214.076 123.818 213.884 123.446 213.768 123.026L214.614 122.798C214.69 123.11 214.828 123.38 215.028 123.608C215.228 123.832 215.462 124.006 215.73 124.13C216.002 124.254 216.286 124.316 216.582 124.316C216.966 124.316 217.31 124.224 217.614 124.04C217.922 123.852 218.166 123.604 218.346 123.296C218.526 122.988 218.616 122.65 218.616 122.282C218.616 121.902 218.522 121.56 218.334 121.256C218.146 120.948 217.898 120.704 217.59 120.524C217.282 120.344 216.946 120.254 216.582 120.254C216.174 120.254 215.822 120.344 215.526 120.524C215.23 120.7 214.994 120.922 214.818 121.19L214.014 120.854L214.278 116.36H218.892V117.206H214.668L215.106 116.792L214.872 120.626L214.65 120.332C214.898 120.048 215.198 119.826 215.55 119.666C215.902 119.506 216.272 119.426 216.66 119.426C217.192 119.426 217.672 119.554 218.1 119.81C218.528 120.062 218.868 120.404 219.12 120.836C219.372 121.268 219.498 121.75 219.498 122.282C219.498 122.81 219.364 123.294 219.096 123.734C218.828 124.17 218.472 124.52 218.028 124.784C217.584 125.048 217.094 125.18 216.558 125.18ZM223.754 125.18C223.222 125.18 222.742 125.056 222.314 124.808C221.89 124.56 221.554 124.224 221.306 123.8C221.058 123.372 220.934 122.892 220.934 122.36V119C220.934 118.468 221.058 117.99 221.306 117.566C221.554 117.138 221.89 116.8 222.314 116.552C222.742 116.304 223.222 116.18 223.754 116.18C224.286 116.18 224.764 116.304 225.188 116.552C225.616 116.8 225.954 117.138 226.202 117.566C226.45 117.99 226.574 118.468 226.574 119V122.36C226.574 122.892 226.45 123.372 226.202 123.8C225.954 124.224 225.616 124.56 225.188 124.808C224.764 125.056 224.286 125.18 223.754 125.18ZM223.754 124.328C224.11 124.328 224.434 124.242 224.726 124.07C225.018 123.894 225.25 123.66 225.422 123.368C225.594 123.076 225.68 122.754 225.68 122.402V118.958C225.68 118.602 225.594 118.278 225.422 117.986C225.25 117.694 225.018 117.462 224.726 117.29C224.434 117.114 224.11 117.026 223.754 117.026C223.398 117.026 223.074 117.114 222.782 117.29C222.49 117.462 222.258 117.694 222.086 117.986C221.914 118.278 221.828 118.602 221.828 118.958V122.402C221.828 122.754 221.914 123.076 222.086 123.368C222.258 123.66 222.49 123.894 222.782 124.07C223.074 124.242 223.398 124.328 223.754 124.328ZM231.078 125.18C230.546 125.18 230.066 125.056 229.638 124.808C229.214 124.56 228.878 124.224 228.63 123.8C228.382 123.372 228.258 122.892 228.258 122.36V119C228.258 118.468 228.382 117.99 228.63 117.566C228.878 117.138 229.214 116.8 229.638 116.552C230.066 116.304 230.546 116.18 231.078 116.18C231.61 116.18 232.088 116.304 232.512 116.552C232.94 116.8 233.278 117.138 233.526 117.566C233.774 117.99 233.898 118.468 233.898 119V122.36C233.898 122.892 233.774 123.372 233.526 123.8C233.278 124.224 232.94 124.56 232.512 124.808C232.088 125.056 231.61 125.18 231.078 125.18ZM231.078 124.328C231.434 124.328 231.758 124.242 232.05 124.07C232.342 123.894 232.574 123.66 232.746 123.368C232.918 123.076 233.004 122.754 233.004 122.402V118.958C233.004 118.602 232.918 118.278 232.746 117.986C232.574 117.694 232.342 117.462 232.05 117.29C231.758 117.114 231.434 117.026 231.078 117.026C230.722 117.026 230.398 117.114 230.106 117.29C229.814 117.462 229.582 117.694 229.41 117.986C229.238 118.278 229.152 118.602 229.152 118.958V122.402C229.152 122.754 229.238 123.076 229.41 123.368C229.582 123.66 229.814 123.894 230.106 124.07C230.398 124.242 230.722 124.328 231.078 124.328ZM240.403 125.174C239.643 125.174 239.017 125.01 238.525 124.682C238.037 124.354 237.737 123.898 237.625 123.314L238.525 123.164C238.621 123.532 238.839 123.826 239.179 124.046C239.523 124.262 239.947 124.37 240.451 124.37C240.943 124.37 241.331 124.268 241.615 124.064C241.899 123.856 242.041 123.574 242.041 123.218C242.041 123.018 241.995 122.856 241.903 122.732C241.815 122.604 241.633 122.486 241.357 122.378C241.081 122.27 240.669 122.142 240.121 121.994C239.533 121.834 239.073 121.674 238.741 121.514C238.409 121.354 238.173 121.17 238.033 120.962C237.893 120.75 237.823 120.492 237.823 120.188C237.823 119.82 237.927 119.498 238.135 119.222C238.343 118.942 238.631 118.726 238.999 118.574C239.367 118.418 239.795 118.34 240.283 118.34C240.771 118.34 241.207 118.42 241.591 118.58C241.979 118.736 242.291 118.956 242.527 119.24C242.763 119.524 242.903 119.854 242.947 120.23L242.047 120.392C241.987 120.012 241.797 119.712 241.477 119.492C241.161 119.268 240.759 119.152 240.271 119.144C239.811 119.132 239.437 119.22 239.149 119.408C238.861 119.592 238.717 119.838 238.717 120.146C238.717 120.318 238.769 120.466 238.873 120.59C238.977 120.71 239.165 120.824 239.437 120.932C239.713 121.04 240.105 121.158 240.613 121.286C241.209 121.438 241.677 121.598 242.017 121.766C242.357 121.934 242.599 122.132 242.743 122.36C242.887 122.588 242.959 122.87 242.959 123.206C242.959 123.818 242.731 124.3 242.275 124.652C241.823 125 241.199 125.174 240.403 125.174ZM246.803 125.18C246.199 125.18 245.683 125.03 245.255 124.73C244.827 124.426 244.499 124.016 244.271 123.5C244.043 122.984 243.929 122.402 243.929 121.754C243.929 121.11 244.041 120.53 244.265 120.014C244.493 119.498 244.819 119.09 245.243 118.79C245.667 118.49 246.175 118.34 246.767 118.34C247.375 118.34 247.887 118.488 248.303 118.784C248.719 119.08 249.033 119.486 249.245 120.002C249.461 120.514 249.569 121.098 249.569 121.754C249.569 122.398 249.463 122.98 249.251 123.5C249.039 124.016 248.727 124.426 248.315 124.73C247.903 125.03 247.399 125.18 246.803 125.18ZM246.893 124.358C247.353 124.358 247.733 124.246 248.033 124.022C248.333 123.798 248.557 123.49 248.705 123.098C248.853 122.702 248.927 122.254 248.927 121.754C248.927 121.246 248.853 120.798 248.705 120.41C248.557 120.018 248.333 119.712 248.033 119.492C247.737 119.272 247.363 119.162 246.911 119.162C246.447 119.162 246.063 119.276 245.759 119.504C245.455 119.732 245.229 120.042 245.081 120.434C244.937 120.826 244.865 121.266 244.865 121.754C244.865 122.246 244.939 122.69 245.087 123.086C245.239 123.478 245.465 123.788 245.765 124.016C246.065 124.244 246.441 124.358 246.893 124.358ZM248.831 127.88V123.398H248.927V118.52H249.719V127.88H248.831ZM254.447 125V118.04C254.447 117.872 254.455 117.706 254.471 117.542C254.491 117.378 254.529 117.222 254.585 117.074C254.641 116.922 254.729 116.782 254.849 116.654C254.981 116.51 255.125 116.406 255.281 116.342C255.437 116.274 255.599 116.23 255.767 116.21C255.939 116.19 256.107 116.18 256.271 116.18H257.099V116.924H256.331C255.995 116.924 255.743 117.006 255.575 117.17C255.411 117.334 255.329 117.592 255.329 117.944V125H254.447ZM253.325 119.276V118.52H257.099V119.276H253.325ZM261.587 125C261.223 125.076 260.863 125.106 260.507 125.09C260.155 125.074 259.839 124.998 259.559 124.862C259.283 124.726 259.073 124.514 258.929 124.226C258.813 123.986 258.749 123.744 258.737 123.5C258.729 123.252 258.725 122.97 258.725 122.654V116.72H259.601V122.618C259.601 122.89 259.603 123.118 259.607 123.302C259.615 123.482 259.657 123.642 259.733 123.782C259.877 124.05 260.105 124.21 260.417 124.262C260.733 124.314 261.123 124.302 261.587 124.226V125ZM257.339 119.276V118.52H261.587V119.276H257.339Z" fill="#101214"/>
<path d="M152.667 96.3333C153.062 96.3333 153.449 96.216 153.778 95.9963C154.107 95.7765 154.363 95.4642 154.514 95.0987C154.666 94.7332 154.705 94.3311 154.628 93.9432C154.551 93.5552 154.36 93.1988 154.081 92.9191C153.801 92.6394 153.445 92.4489 153.057 92.3718C152.669 92.2946 152.267 92.3342 151.901 92.4856C151.536 92.6369 151.223 92.8933 151.004 93.2222C150.784 93.5511 150.667 93.9378 150.667 94.3333C150.667 94.8638 150.877 95.3725 151.252 95.7475C151.627 96.1226 152.136 96.3333 152.667 96.3333ZM152.667 93.6667C152.798 93.6667 152.927 93.7058 153.037 93.779C153.147 93.8523 153.232 93.9564 153.282 94.0782C153.333 94.2 153.346 94.3341 153.32 94.4634C153.295 94.5927 153.231 94.7115 153.138 94.8047C153.045 94.898 152.926 94.9615 152.797 94.9872C152.667 95.0129 152.533 94.9997 152.411 94.9493C152.29 94.8988 152.185 94.8133 152.112 94.7037C152.039 94.5941 152 94.4652 152 94.3333C152 94.1565 152.07 93.987 152.195 93.8619C152.32 93.7369 152.49 93.6667 152.667 93.6667ZM161.333 92.3333H156C155.823 92.3333 155.653 92.4036 155.528 92.5286C155.403 92.6536 155.333 92.8232 155.333 93V97H150V91.6667C150 91.4899 149.93 91.3203 149.805 91.1953C149.68 91.0702 149.51 91 149.333 91C149.156 91 148.987 91.0702 148.862 91.1953C148.737 91.3203 148.667 91.4899 148.667 91.6667V100.333C148.667 100.51 148.737 100.68 148.862 100.805C148.987 100.93 149.156 101 149.333 101C149.51 101 149.68 100.93 149.805 100.805C149.93 100.68 150 100.51 150 100.333V98.3333H162V100.333C162 100.51 162.07 100.68 162.195 100.805C162.32 100.93 162.49 101 162.667 101C162.843 101 163.013 100.93 163.138 100.805C163.263 100.68 163.333 100.51 163.333 100.333V94.3333C163.333 93.8029 163.122 93.2942 162.747 92.9191C162.372 92.544 161.864 92.3333 161.333 92.3333ZM162 97H156.667V93.6667H161.333C161.51 93.6667 161.68 93.7369 161.805 93.8619C161.93 93.987 162 94.1565 162 94.3333V97Z" fill="#5D5FEF"/>
<path d="M172.6 100.994L172.606 100.19L176.512 96.662C176.848 96.358 177.07 96.07 177.178 95.798C177.29 95.522 177.346 95.234 177.346 94.934C177.346 94.578 177.262 94.256 177.094 93.968C176.926 93.68 176.7 93.452 176.416 93.284C176.132 93.112 175.814 93.026 175.462 93.026C175.094 93.026 174.766 93.114 174.478 93.29C174.19 93.466 173.962 93.698 173.794 93.986C173.63 94.274 173.55 94.588 173.554 94.928H172.654C172.654 94.404 172.778 93.934 173.026 93.518C173.274 93.102 173.61 92.776 174.034 92.54C174.458 92.3 174.938 92.18 175.474 92.18C175.998 92.18 176.468 92.304 176.884 92.552C177.304 92.796 177.634 93.128 177.874 93.548C178.118 93.964 178.24 94.428 178.24 94.94C178.24 95.3 178.196 95.618 178.108 95.894C178.024 96.166 177.89 96.42 177.706 96.656C177.526 96.888 177.296 97.128 177.016 97.376L173.548 100.508L173.41 100.148H178.24V100.994H172.6Z" fill="#101214"/>
<path d="M201.667 96.0001H190.333V92.2734C190.331 92.0333 190.394 91.7971 190.516 91.5905C190.639 91.3838 190.815 91.2144 191.027 91.1008C191.261 90.9743 191.527 90.9208 191.792 90.9474C191.657 91.3554 191.638 91.7927 191.736 92.2109C191.835 92.629 192.047 93.0118 192.35 93.3168L193.057 94.0234C193.118 94.0854 193.192 94.1346 193.273 94.1681C193.354 94.2017 193.441 94.2189 193.528 94.2189C193.616 94.2189 193.703 94.2017 193.783 94.1681C193.864 94.1346 193.938 94.0854 194 94.0234L196.357 91.6668C196.481 91.5417 196.552 91.3722 196.552 91.1954C196.552 91.0186 196.481 90.8491 196.357 90.7241L195.65 90.0174C195.256 89.6256 194.736 89.3872 194.182 89.3453C193.628 89.3033 193.078 89.4606 192.63 89.7888C192.226 89.6309 191.79 89.5742 191.359 89.6234C190.928 89.6727 190.516 89.8265 190.158 90.0714C189.8 90.3163 189.508 90.645 189.306 91.0287C189.104 91.4125 188.999 91.8398 189 92.2734V96.0001H188.333C188.156 96.0001 187.987 96.0703 187.862 96.1954C187.737 96.3204 187.667 96.4899 187.667 96.6668C187.667 96.8436 187.737 97.0131 187.862 97.1382C187.987 97.2632 188.156 97.3334 188.333 97.3334H189V99.3334C189.001 99.7457 189.13 100.148 189.369 100.484C189.607 100.82 189.944 101.074 190.333 101.211V102C190.333 102.177 190.403 102.346 190.528 102.471C190.653 102.597 190.823 102.667 191 102.667C191.177 102.667 191.346 102.597 191.471 102.471C191.596 102.346 191.667 102.177 191.667 102V101.333H198.333V102C198.333 102.177 198.403 102.346 198.528 102.471C198.653 102.597 198.823 102.667 199 102.667C199.177 102.667 199.346 102.597 199.471 102.471C199.596 102.346 199.667 102.177 199.667 102V101.211C200.055 101.074 200.392 100.82 200.631 100.484C200.87 100.148 200.999 99.7457 201 99.3334V97.3334H201.667C201.843 97.3334 202.013 97.2632 202.138 97.1382C202.263 97.0131 202.333 96.8436 202.333 96.6668C202.333 96.4899 202.263 96.3204 202.138 96.1954C202.013 96.0703 201.843 96.0001 201.667 96.0001ZM193.293 90.9601C193.481 90.7731 193.735 90.6682 194 90.6682C194.265 90.6682 194.519 90.7731 194.707 90.9601L194.943 91.1954L193.529 92.6094L193.293 92.3741C193.105 92.1864 193 91.932 193 91.6668C193 91.4015 193.105 91.1471 193.293 90.9594L193.293 90.9601ZM199.667 99.3334C199.667 99.5102 199.596 99.6798 199.471 99.8048C199.346 99.9299 199.177 100 199 100H191C190.823 100 190.653 99.9299 190.528 99.8048C190.403 99.6798 190.333 99.5102 190.333 99.3334V97.3334H199.667V99.3334Z" fill="#5D5FEF"/>
<path d="M211.6 100.994L211.606 100.19L215.512 96.662C215.848 96.358 216.07 96.07 216.178 95.798C216.29 95.522 216.346 95.234 216.346 94.934C216.346 94.578 216.262 94.256 216.094 93.968C215.926 93.68 215.7 93.452 215.416 93.284C215.132 93.112 214.814 93.026 214.462 93.026C214.094 93.026 213.766 93.114 213.478 93.29C213.19 93.466 212.962 93.698 212.794 93.986C212.63 94.274 212.55 94.588 212.554 94.928H211.654C211.654 94.404 211.778 93.934 212.026 93.518C212.274 93.102 212.61 92.776 213.034 92.54C213.458 92.3 213.938 92.18 214.474 92.18C214.998 92.18 215.468 92.304 215.884 92.552C216.304 92.796 216.634 93.128 216.874 93.548C217.118 93.964 217.24 94.428 217.24 94.94C217.24 95.3 217.196 95.618 217.108 95.894C217.024 96.166 216.89 96.42 216.706 96.656C216.526 96.888 216.296 97.128 216.016 97.376L212.548 100.508L212.41 100.148H217.24V100.994H211.6Z" fill="#101214"/>
<path d="M230.413 96.7199C230.331 96.7498 230.256 96.7976 230.193 96.8598C230.131 96.922 230.083 96.9972 230.053 97.0799C230.005 97.201 229.993 97.3338 230.019 97.4616C230.046 97.5894 230.109 97.7068 230.201 97.799C230.293 97.8913 230.411 97.9545 230.538 97.9807C230.666 98.0069 230.799 97.995 230.92 97.9466C231.001 97.9128 231.075 97.8654 231.14 97.8066C231.199 97.7418 231.246 97.6673 231.28 97.5866C231.317 97.5074 231.336 97.4207 231.333 97.3332C231.331 97.1567 231.262 96.9876 231.14 96.8599C231.046 96.7674 230.927 96.7047 230.798 96.6798C230.669 96.6549 230.535 96.6688 230.413 96.7199ZM239.173 94.0532L238.267 91.3666C238.129 90.9754 237.872 90.6369 237.533 90.398C237.194 90.1591 236.788 90.0316 236.373 90.0332H231.627C231.212 90.0316 230.807 90.1591 230.468 90.398C230.128 90.6369 229.872 90.9754 229.733 91.3666L228.827 94.0732C228.4 94.1849 228.023 94.4343 227.753 94.7828C227.483 95.1312 227.335 95.5591 227.333 95.9999V98.6666C227.335 99.0792 227.463 99.4814 227.702 99.8179C227.941 100.155 228.278 100.409 228.667 100.547V101.333C228.667 101.51 228.737 101.68 228.862 101.805C228.987 101.93 229.157 102 229.333 102C229.51 102 229.68 101.93 229.805 101.805C229.93 101.68 230 101.51 230 101.333V100.667H238V101.333C238 101.51 238.07 101.68 238.195 101.805C238.32 101.93 238.49 102 238.667 102C238.844 102 239.013 101.93 239.138 101.805C239.263 101.68 239.333 101.51 239.333 101.333V100.547C239.723 100.409 240.059 100.155 240.298 99.8179C240.537 99.4814 240.666 99.0792 240.667 98.6666V95.9999C240.665 95.5591 240.518 95.1312 240.248 94.7828C239.978 94.4343 239.6 94.1849 239.173 94.0732V94.0532ZM230.993 91.7866C231.038 91.6541 231.123 91.5391 231.237 91.4578C231.351 91.3764 231.487 91.3329 231.627 91.3332H236.373C236.519 91.3256 236.663 91.3658 236.783 91.4477C236.903 91.5296 236.994 91.6486 237.04 91.7866L237.74 93.9999H230.26L230.993 91.7866ZM239.333 98.6666C239.333 98.8434 239.263 99.0129 239.138 99.138C239.013 99.263 238.844 99.3332 238.667 99.3332H229.333C229.157 99.3332 228.987 99.263 228.862 99.138C228.737 99.0129 228.667 98.8434 228.667 98.6666V95.9999C228.667 95.8231 228.737 95.6535 228.862 95.5285C228.987 95.4035 229.157 95.3332 229.333 95.3332H238.667C238.844 95.3332 239.013 95.4035 239.138 95.5285C239.263 95.6535 239.333 95.8231 239.333 95.9999V98.6666ZM237.08 96.7199C236.997 96.7498 236.922 96.7976 236.86 96.8598C236.798 96.922 236.75 96.9972 236.72 97.0799C236.672 97.201 236.66 97.3338 236.686 97.4616C236.712 97.5894 236.775 97.7068 236.868 97.799C236.96 97.8913 237.077 97.9545 237.205 97.9807C237.333 98.0069 237.466 97.995 237.587 97.9466C237.67 97.9166 237.745 97.8688 237.807 97.8066C237.869 97.7444 237.917 97.6693 237.947 97.5866C237.984 97.5074 238.002 97.4207 238 97.3332C237.998 97.1567 237.929 96.9876 237.807 96.8599C237.713 96.7674 237.594 96.7047 237.465 96.6798C237.335 96.6549 237.202 96.6688 237.08 96.7199ZM234.667 96.6666H233.333C233.157 96.6666 232.987 96.7368 232.862 96.8618C232.737 96.9868 232.667 97.1564 232.667 97.3332C232.667 97.51 232.737 97.6796 232.862 97.8046C232.987 97.9296 233.157 97.9999 233.333 97.9999H234.667C234.844 97.9999 235.013 97.9296 235.138 97.8046C235.263 97.6796 235.333 97.51 235.333 97.3332C235.333 97.1564 235.263 96.9868 235.138 96.8618C235.013 96.7368 234.844 96.6666 234.667 96.6666Z" fill="#5D5FEF"/>
<path d="M250.6 100.994L250.606 100.19L254.512 96.662C254.848 96.358 255.07 96.07 255.178 95.798C255.29 95.522 255.346 95.234 255.346 94.934C255.346 94.578 255.262 94.256 255.094 93.968C254.926 93.68 254.7 93.452 254.416 93.284C254.132 93.112 253.814 93.026 253.462 93.026C253.094 93.026 252.766 93.114 252.478 93.29C252.19 93.466 251.962 93.698 251.794 93.986C251.63 94.274 251.55 94.588 251.554 94.928H250.654C250.654 94.404 250.778 93.934 251.026 93.518C251.274 93.102 251.61 92.776 252.034 92.54C252.458 92.3 252.938 92.18 253.474 92.18C253.998 92.18 254.468 92.304 254.884 92.552C255.304 92.796 255.634 93.128 255.874 93.548C256.118 93.964 256.24 94.428 256.24 94.94C256.24 95.3 256.196 95.618 256.108 95.894C256.024 96.166 255.89 96.42 255.706 96.656C255.526 96.888 255.296 97.128 255.016 97.376L251.548 100.508L251.41 100.148H256.24V100.994H250.6Z" fill="#101214"/>
<rect width="122" height="20" transform="translate(198)" fill="#DEE2E6"/>
<path d="M208.96 15V6.36H209.842V14.154H213.946V15H208.96ZM215.089 7.29V6.3H215.971V7.29H215.089ZM215.089 15V8.52H215.971V15H215.089ZM220.188 15.174C219.428 15.174 218.802 15.01 218.31 14.682C217.822 14.354 217.522 13.898 217.41 13.314L218.31 13.164C218.406 13.532 218.624 13.826 218.964 14.046C219.308 14.262 219.732 14.37 220.236 14.37C220.728 14.37 221.116 14.268 221.4 14.064C221.684 13.856 221.826 13.574 221.826 13.218C221.826 13.018 221.78 12.856 221.688 12.732C221.6 12.604 221.418 12.486 221.142 12.378C220.866 12.27 220.454 12.142 219.906 11.994C219.318 11.834 218.858 11.674 218.526 11.514C218.194 11.354 217.958 11.17 217.818 10.962C217.678 10.75 217.608 10.492 217.608 10.188C217.608 9.82 217.712 9.498 217.92 9.222C218.128 8.942 218.416 8.726 218.784 8.574C219.152 8.418 219.58 8.34 220.068 8.34C220.556 8.34 220.992 8.42 221.376 8.58C221.764 8.736 222.076 8.956 222.312 9.24C222.548 9.524 222.688 9.854 222.732 10.23L221.832 10.392C221.772 10.012 221.582 9.712 221.262 9.492C220.946 9.268 220.544 9.152 220.056 9.144C219.596 9.132 219.222 9.22 218.934 9.408C218.646 9.592 218.502 9.838 218.502 10.146C218.502 10.318 218.554 10.466 218.658 10.59C218.762 10.71 218.95 10.824 219.222 10.932C219.498 11.04 219.89 11.158 220.398 11.286C220.994 11.438 221.462 11.598 221.802 11.766C222.142 11.934 222.384 12.132 222.528 12.36C222.672 12.588 222.744 12.87 222.744 13.206C222.744 13.818 222.516 14.3 222.06 14.652C221.608 15 220.984 15.174 220.188 15.174ZM227.602 15C227.238 15.076 226.878 15.106 226.522 15.09C226.17 15.074 225.854 14.998 225.574 14.862C225.298 14.726 225.088 14.514 224.944 14.226C224.828 13.986 224.764 13.744 224.752 13.5C224.744 13.252 224.74 12.97 224.74 12.654V6.72H225.616V12.618C225.616 12.89 225.618 13.118 225.622 13.302C225.63 13.482 225.672 13.642 225.748 13.782C225.892 14.05 226.12 14.21 226.432 14.262C226.748 14.314 227.138 14.302 227.602 14.226V15ZM223.354 9.276V8.52H227.602V9.276H223.354ZM231.387 15.18C230.755 15.18 230.207 15.04 229.743 14.76C229.283 14.48 228.925 14.086 228.669 13.578C228.413 13.07 228.285 12.474 228.285 11.79C228.285 11.082 228.411 10.47 228.663 9.954C228.915 9.438 229.269 9.04 229.725 8.76C230.185 8.48 230.727 8.34 231.351 8.34C231.991 8.34 232.537 8.488 232.989 8.784C233.441 9.076 233.783 9.496 234.015 10.044C234.247 10.592 234.353 11.246 234.333 12.006H233.433V11.694C233.417 10.854 233.235 10.22 232.887 9.792C232.543 9.364 232.039 9.15 231.375 9.15C230.679 9.15 230.145 9.376 229.773 9.828C229.405 10.28 229.221 10.924 229.221 11.76C229.221 12.576 229.405 13.21 229.773 13.662C230.145 14.11 230.671 14.334 231.351 14.334C231.815 14.334 232.219 14.228 232.563 14.016C232.911 13.8 233.185 13.49 233.385 13.086L234.207 13.404C233.951 13.968 233.573 14.406 233.073 14.718C232.577 15.026 232.015 15.18 231.387 15.18ZM228.909 12.006V11.268H233.859V12.006H228.909ZM238.178 15.18C237.574 15.18 237.058 15.03 236.63 14.73C236.202 14.426 235.874 14.016 235.646 13.5C235.418 12.984 235.304 12.402 235.304 11.754C235.304 11.11 235.416 10.53 235.64 10.014C235.868 9.498 236.194 9.09 236.618 8.79C237.042 8.49 237.55 8.34 238.142 8.34C238.75 8.34 239.262 8.488 239.678 8.784C240.094 9.08 240.408 9.486 240.62 10.002C240.836 10.514 240.944 11.098 240.944 11.754C240.944 12.398 240.838 12.98 240.626 13.5C240.414 14.016 240.102 14.426 239.69 14.73C239.278 15.03 238.774 15.18 238.178 15.18ZM238.268 14.358C238.728 14.358 239.108 14.246 239.408 14.022C239.708 13.798 239.932 13.49 240.08 13.098C240.228 12.702 240.302 12.254 240.302 11.754C240.302 11.246 240.228 10.798 240.08 10.41C239.932 10.018 239.708 9.712 239.408 9.492C239.112 9.272 238.738 9.162 238.286 9.162C237.822 9.162 237.438 9.276 237.134 9.504C236.83 9.732 236.604 10.042 236.456 10.434C236.312 10.826 236.24 11.266 236.24 11.754C236.24 12.246 236.314 12.69 236.462 13.086C236.614 13.478 236.84 13.788 237.14 14.016C237.44 14.244 237.816 14.358 238.268 14.358ZM240.302 15V10.122H240.206V6.36H241.094V15H240.302ZM246.686 15V7.344L245.06 8.322V7.332L246.686 6.36H247.58V15H246.686ZM252.676 15.18C252.144 15.18 251.664 15.056 251.236 14.808C250.812 14.56 250.476 14.224 250.228 13.8C249.98 13.372 249.856 12.892 249.856 12.36V9C249.856 8.468 249.98 7.99 250.228 7.566C250.476 7.138 250.812 6.8 251.236 6.552C251.664 6.304 252.144 6.18 252.676 6.18C253.208 6.18 253.686 6.304 254.11 6.552C254.538 6.8 254.876 7.138 255.124 7.566C255.372 7.99 255.496 8.468 255.496 9V12.36C255.496 12.892 255.372 13.372 255.124 13.8C254.876 14.224 254.538 14.56 254.11 14.808C253.686 15.056 253.208 15.18 252.676 15.18ZM252.676 14.328C253.032 14.328 253.356 14.242 253.648 14.07C253.94 13.894 254.172 13.66 254.344 13.368C254.516 13.076 254.602 12.754 254.602 12.402V8.958C254.602 8.602 254.516 8.278 254.344 7.986C254.172 7.694 253.94 7.462 253.648 7.29C253.356 7.114 253.032 7.026 252.676 7.026C252.32 7.026 251.996 7.114 251.704 7.29C251.412 7.462 251.18 7.694 251.008 7.986C250.836 8.278 250.75 8.602 250.75 8.958V12.402C250.75 12.754 250.836 13.076 251.008 13.368C251.18 13.66 251.412 13.894 251.704 14.07C251.996 14.242 252.32 14.328 252.676 14.328ZM259.582 15V6.36H262.204C262.296 6.36 262.452 6.362 262.672 6.366C262.896 6.37 263.11 6.386 263.314 6.414C263.97 6.506 264.518 6.75 264.958 7.146C265.398 7.542 265.728 8.046 265.948 8.658C266.168 9.27 266.278 9.944 266.278 10.68C266.278 11.416 266.168 12.09 265.948 12.702C265.728 13.314 265.398 13.818 264.958 14.214C264.518 14.61 263.97 14.854 263.314 14.946C263.114 14.97 262.9 14.986 262.672 14.994C262.444 14.998 262.288 15 262.204 15H259.582ZM260.494 14.154H262.204C262.368 14.154 262.544 14.15 262.732 14.142C262.924 14.13 263.088 14.11 263.224 14.082C263.728 13.994 264.134 13.79 264.442 13.47C264.754 13.15 264.982 12.75 265.126 12.27C265.27 11.786 265.342 11.256 265.342 10.68C265.342 10.1 265.27 9.568 265.126 9.084C264.982 8.6 264.754 8.2 264.442 7.884C264.13 7.568 263.724 7.366 263.224 7.278C263.088 7.25 262.922 7.232 262.726 7.224C262.534 7.212 262.36 7.206 262.204 7.206H260.494V14.154ZM269.499 15.18C269.011 15.18 268.601 15.092 268.269 14.916C267.941 14.74 267.695 14.506 267.531 14.214C267.367 13.922 267.285 13.604 267.285 13.26C267.285 12.908 267.355 12.608 267.495 12.36C267.639 12.108 267.833 11.902 268.077 11.742C268.325 11.582 268.611 11.46 268.935 11.376C269.263 11.296 269.625 11.226 270.021 11.166C270.421 11.102 270.811 11.048 271.191 11.004C271.575 10.956 271.911 10.91 272.199 10.866L271.887 11.058C271.899 10.418 271.775 9.944 271.515 9.636C271.255 9.328 270.803 9.174 270.159 9.174C269.715 9.174 269.339 9.274 269.031 9.474C268.727 9.674 268.513 9.99 268.389 10.422L267.531 10.17C267.679 9.59 267.977 9.14 268.425 8.82C268.873 8.5 269.455 8.34 270.171 8.34C270.763 8.34 271.265 8.452 271.677 8.676C272.093 8.896 272.387 9.216 272.559 9.636C272.639 9.824 272.691 10.034 272.715 10.266C272.739 10.498 272.751 10.734 272.751 10.974V15H271.965V13.374L272.193 13.47C271.973 14.026 271.631 14.45 271.167 14.742C270.703 15.034 270.147 15.18 269.499 15.18ZM269.601 14.418C270.013 14.418 270.373 14.344 270.681 14.196C270.989 14.048 271.237 13.846 271.425 13.59C271.613 13.33 271.735 13.038 271.791 12.714C271.839 12.506 271.865 12.278 271.869 12.03C271.873 11.778 271.875 11.59 271.875 11.466L272.211 11.64C271.911 11.68 271.585 11.72 271.233 11.76C270.885 11.8 270.541 11.846 270.201 11.898C269.865 11.95 269.561 12.012 269.289 12.084C269.105 12.136 268.927 12.21 268.755 12.306C268.583 12.398 268.441 12.522 268.329 12.678C268.221 12.834 268.167 13.028 268.167 13.26C268.167 13.448 268.213 13.63 268.305 13.806C268.401 13.982 268.553 14.128 268.761 14.244C268.973 14.36 269.253 14.418 269.601 14.418ZM274.873 17.88L276.127 14.478L276.145 15.486L273.307 8.52H274.243L276.571 14.346H276.187L278.335 8.52H279.235L275.755 17.88H274.873ZM282.696 15.174C281.936 15.174 281.31 15.01 280.818 14.682C280.33 14.354 280.03 13.898 279.918 13.314L280.818 13.164C280.914 13.532 281.132 13.826 281.472 14.046C281.816 14.262 282.24 14.37 282.743 14.37C283.236 14.37 283.624 14.268 283.908 14.064C284.192 13.856 284.334 13.574 284.334 13.218C284.334 13.018 284.288 12.856 284.196 12.732C284.108 12.604 283.926 12.486 283.65 12.378C283.374 12.27 282.962 12.142 282.414 11.994C281.826 11.834 281.366 11.674 281.034 11.514C280.702 11.354 280.466 11.17 280.326 10.962C280.186 10.75 280.116 10.492 280.116 10.188C280.116 9.82 280.22 9.498 280.428 9.222C280.636 8.942 280.924 8.726 281.292 8.574C281.66 8.418 282.088 8.34 282.576 8.34C283.064 8.34 283.5 8.42 283.884 8.58C284.272 8.736 284.584 8.956 284.82 9.24C285.056 9.524 285.196 9.854 285.24 10.23L284.34 10.392C284.28 10.012 284.09 9.712 283.77 9.492C283.454 9.268 283.052 9.152 282.564 9.144C282.104 9.132 281.73 9.22 281.442 9.408C281.154 9.592 281.01 9.838 281.01 10.146C281.01 10.318 281.062 10.466 281.166 10.59C281.27 10.71 281.458 10.824 281.73 10.932C282.006 11.04 282.398 11.158 282.906 11.286C283.502 11.438 283.97 11.598 284.31 11.766C284.65 11.934 284.892 12.132 285.036 12.36C285.18 12.588 285.252 12.87 285.252 13.206C285.252 13.818 285.024 14.3 284.568 14.652C284.116 15 283.492 15.174 282.696 15.174ZM288.385 15L291.361 6.36H292.531L295.507 15H294.589L291.763 6.852H292.111L289.303 15H288.385ZM289.711 12.906V12.078H294.175V12.906H289.711ZM299.164 18.06C298.832 18.06 298.504 18.01 298.18 17.91C297.86 17.814 297.564 17.66 297.292 17.448C297.02 17.24 296.792 16.968 296.608 16.632L297.406 16.188C297.586 16.548 297.838 16.806 298.162 16.962C298.49 17.122 298.824 17.202 299.164 17.202C299.632 17.202 300.01 17.114 300.298 16.938C300.59 16.766 300.802 16.51 300.934 16.17C301.066 15.83 301.13 15.406 301.126 14.898V13.17H301.228V8.52H302.014V14.91C302.014 15.094 302.008 15.27 301.996 15.438C301.988 15.61 301.97 15.778 301.942 15.942C301.866 16.426 301.708 16.824 301.468 17.136C301.232 17.448 300.92 17.68 300.532 17.832C300.148 17.984 299.692 18.06 299.164 18.06ZM299.104 15.18C298.5 15.18 297.984 15.03 297.556 14.73C297.128 14.426 296.8 14.016 296.572 13.5C296.344 12.984 296.23 12.402 296.23 11.754C296.23 11.11 296.342 10.53 296.566 10.014C296.794 9.498 297.12 9.09 297.544 8.79C297.968 8.49 298.476 8.34 299.068 8.34C299.676 8.34 300.188 8.488 300.604 8.784C301.02 9.08 301.334 9.486 301.546 10.002C301.762 10.514 301.87 11.098 301.87 11.754C301.87 12.398 301.764 12.98 301.552 13.5C301.34 14.016 301.028 14.426 300.616 14.73C300.204 15.03 299.7 15.18 299.104 15.18ZM299.194 14.358C299.654 14.358 300.034 14.246 300.334 14.022C300.634 13.798 300.858 13.49 301.006 13.098C301.154 12.702 301.228 12.254 301.228 11.754C301.228 11.246 301.154 10.798 301.006 10.41C300.858 10.018 300.634 9.712 300.334 9.492C300.038 9.272 299.664 9.162 299.212 9.162C298.748 9.162 298.364 9.276 298.06 9.504C297.756 9.732 297.53 10.042 297.382 10.434C297.238 10.826 297.166 11.266 297.166 11.754C297.166 12.246 297.24 12.69 297.388 13.086C297.54 13.478 297.766 13.788 298.066 14.016C298.366 14.244 298.742 14.358 299.194 14.358ZM306.398 15.18C305.754 15.18 305.204 15.034 304.748 14.742C304.292 14.45 303.942 14.046 303.698 13.53C303.454 13.014 303.332 12.422 303.332 11.754C303.332 11.074 303.456 10.478 303.704 9.966C303.952 9.454 304.304 9.056 304.76 8.772C305.22 8.484 305.766 8.34 306.398 8.34C307.046 8.34 307.598 8.486 308.054 8.778C308.514 9.066 308.864 9.468 309.104 9.984C309.348 10.496 309.47 11.086 309.47 11.754C309.47 12.434 309.348 13.032 309.104 13.548C308.86 14.06 308.508 14.46 308.048 14.748C307.588 15.036 307.038 15.18 306.398 15.18ZM306.398 14.334C307.118 14.334 307.654 14.096 308.006 13.62C308.358 13.14 308.534 12.518 308.534 11.754C308.534 10.97 308.356 10.346 308 9.882C307.648 9.418 307.114 9.186 306.398 9.186C305.914 9.186 305.514 9.296 305.198 9.516C304.886 9.732 304.652 10.034 304.496 10.422C304.344 10.806 304.268 11.25 304.268 11.754C304.268 12.534 304.448 13.16 304.808 13.632C305.168 14.1 305.698 14.334 306.398 14.334Z" fill="#101214"/>
<path d="M160 158.05L154.728 149.094L165.12 149.007L160 158.05Z" fill="white"/>
</svg>
