<svg width="61" height="34" viewBox="0 0 61 34" fill="none" xmlns="http://www.w3.org/2000/svg">
<rect width="61" height="27" fill="#101214"/>
<path d="M7.626 20.393V18.755H9.089V20.393H7.626ZM7.626 9.172V7.527H9.089V9.172H7.626ZM8.431 19.21C7.731 19.21 7.10567 19.084 6.555 18.832C6.00433 18.58 5.55167 18.223 5.197 17.761C4.847 17.2943 4.61833 16.7437 4.511 16.109L5.96 15.878C6.1 16.4753 6.39867 16.9513 6.856 17.306C7.31333 17.656 7.86167 17.831 8.501 17.831C9.13567 17.831 9.65133 17.6793 10.048 17.376C10.4493 17.0727 10.65 16.6853 10.65 16.214C10.65 15.878 10.5473 15.605 10.342 15.395C10.1413 15.185 9.81233 15.0077 9.355 14.863L6.989 14.135C5.589 13.701 4.889 12.861 4.889 11.615C4.889 11.027 5.029 10.516 5.309 10.082C5.59367 9.648 5.99267 9.312 6.506 9.074C7.01933 8.836 7.619 8.717 8.305 8.717C8.963 8.72633 9.54633 8.84767 10.055 9.081C10.5683 9.31433 10.993 9.65033 11.329 10.089C11.6697 10.5277 11.9053 11.055 12.036 11.671L10.545 11.937C10.4797 11.5777 10.342 11.2603 10.132 10.985C9.92667 10.7097 9.66533 10.495 9.348 10.341C9.03533 10.187 8.683 10.1077 8.291 10.103C7.92233 10.0937 7.591 10.152 7.297 10.278C7.00767 10.3993 6.77667 10.572 6.604 10.796C6.436 11.0153 6.352 11.265 6.352 11.545C6.352 11.853 6.471 12.1143 6.709 12.329C6.947 12.5437 7.32267 12.728 7.836 12.882L9.691 13.421C10.5403 13.673 11.154 14.0113 11.532 14.436C11.91 14.8607 12.099 15.4253 12.099 16.13C12.099 16.746 11.945 17.285 11.637 17.747C11.3337 18.2043 10.9067 18.5637 10.356 18.825C9.80533 19.0817 9.16367 19.21 8.431 19.21ZM16.116 18.993L16.123 17.691L20.512 13.757C20.8667 13.4443 21.107 13.1457 21.233 12.861C21.3637 12.5763 21.429 12.2917 21.429 12.007C21.429 11.6477 21.3497 11.3257 21.191 11.041C21.0323 10.7517 20.813 10.523 20.533 10.355C20.253 10.187 19.931 10.103 19.567 10.103C19.1937 10.103 18.86 10.1917 18.566 10.369C18.2767 10.5417 18.0503 10.7727 17.887 11.062C17.7237 11.3513 17.6443 11.664 17.649 12H16.151C16.151 11.3467 16.298 10.775 16.592 10.285C16.8907 9.79033 17.299 9.40533 17.817 9.13C18.335 8.85 18.9277 8.71 19.595 8.71C20.2297 8.71 20.799 8.85467 21.303 9.144C21.807 9.42867 22.2037 9.82067 22.493 10.32C22.787 10.8193 22.934 11.3887 22.934 12.028C22.934 12.49 22.8733 12.882 22.752 13.204C22.6307 13.526 22.4487 13.8247 22.206 14.1C21.9633 14.3753 21.66 14.674 21.296 14.996L17.908 18.02L17.747 17.6H22.934V18.993H16.116ZM24.8648 19V17.453H26.4118V19H24.8648ZM31.6077 19.21C31.0897 19.21 30.6067 19.105 30.1587 18.895C29.7153 18.6803 29.335 18.3863 29.0177 18.013C28.7003 17.635 28.474 17.201 28.3387 16.711L29.7457 16.333C29.825 16.6317 29.9603 16.8907 30.1517 17.11C30.3477 17.3293 30.5763 17.4997 30.8377 17.621C31.099 17.7377 31.3697 17.796 31.6497 17.796C32.0183 17.796 32.352 17.7073 32.6507 17.53C32.954 17.3527 33.192 17.1147 33.3647 16.816C33.542 16.5173 33.6307 16.1883 33.6307 15.829C33.6307 15.4603 33.5397 15.1267 33.3577 14.828C33.1803 14.5293 32.94 14.2937 32.6367 14.121C32.338 13.9437 32.009 13.855 31.6497 13.855C31.239 13.855 30.8913 13.9367 30.6067 14.1C30.322 14.2633 30.1003 14.4523 29.9417 14.667L28.6677 14.219L28.9757 8.92H34.4147V10.299H29.7247L30.3197 9.746L30.0747 13.715L29.7877 13.344C30.0537 13.078 30.371 12.875 30.7397 12.735C31.1083 12.595 31.4747 12.525 31.8387 12.525C32.464 12.525 33.0217 12.6697 33.5117 12.959C34.0063 13.2483 34.396 13.6427 34.6807 14.142C34.9653 14.6367 35.1077 15.199 35.1077 15.829C35.1077 16.4543 34.9467 17.0237 34.6247 17.537C34.3027 18.0457 33.8757 18.4517 33.3437 18.755C32.8117 19.0583 32.233 19.21 31.6077 19.21ZM40.2458 19.21C39.5924 19.21 39.0044 19.056 38.4818 18.748C37.9591 18.4353 37.5438 18.0083 37.2358 17.467C36.9324 16.9257 36.7808 16.3097 36.7808 15.619V12.406C36.7808 11.6733 36.9324 11.0293 37.2358 10.474C37.5438 9.91867 37.9684 9.487 38.5098 9.179C39.0558 8.871 39.6834 8.717 40.3928 8.717C40.9248 8.717 41.4241 8.81733 41.8908 9.018C42.3574 9.21867 42.7611 9.51733 43.1018 9.914L42.0308 10.915C41.8394 10.6677 41.5991 10.4717 41.3098 10.327C41.0251 10.1777 40.7194 10.103 40.3928 10.103C39.9728 10.103 39.6041 10.2033 39.2868 10.404C38.9694 10.6 38.7198 10.859 38.5378 11.181C38.3604 11.503 38.2718 11.8483 38.2718 12.217V14.065L37.9848 13.743C38.2741 13.365 38.6334 13.0663 39.0628 12.847C39.4921 12.6277 39.9518 12.518 40.4418 12.518C41.0671 12.518 41.6248 12.665 42.1148 12.959C42.6094 13.2483 42.9968 13.6427 43.2768 14.142C43.5614 14.6413 43.7038 15.2037 43.7038 15.829C43.7038 16.459 43.5451 17.0307 43.2278 17.544C42.9151 18.0527 42.4951 18.4587 41.9678 18.762C41.4451 19.0607 40.8711 19.21 40.2458 19.21ZM40.2458 17.803C40.6098 17.803 40.9411 17.7143 41.2398 17.537C41.5384 17.3597 41.7764 17.1217 41.9538 16.823C42.1311 16.5243 42.2198 16.193 42.2198 15.829C42.2198 15.465 42.1311 15.1337 41.9538 14.835C41.7811 14.5363 41.5454 14.2983 41.2468 14.121C40.9481 13.9437 40.6168 13.855 40.2528 13.855C39.8888 13.855 39.5551 13.9437 39.2518 14.121C38.9531 14.2983 38.7151 14.5363 38.5378 14.835C38.3604 15.1337 38.2718 15.465 38.2718 15.829C38.2718 16.1883 38.3604 16.5173 38.5378 16.816C38.7151 17.1147 38.9531 17.355 39.2518 17.537C39.5504 17.7143 39.8818 17.803 40.2458 17.803ZM45.4761 19V8.92H46.7991L50.4531 16.501L54.0861 8.92H55.4231V18.993H54.0371V12.098L50.7821 19H50.1171L46.8551 12.098V19H45.4761Z" fill="#F8F9FA"/>
<path d="M30.0002 33.0501L24.7284 24.0942L35.1204 24.0066L30.0002 33.0501Z" fill="#101214"/>
</svg>
